<?xml version="1.0" encoding="utf-8" standalone="no"?>
<!DOCTYPE svg PUBLIC "-//W3C//DTD SVG 1.1//EN"
  "http://www.w3.org/Graphics/SVG/1.1/DTD/svg11.dtd">
<svg xmlns:xlink="http://www.w3.org/1999/xlink" width="552.420469pt" height="285.829844pt" viewBox="0 0 552.420469 285.829844" xmlns="http://www.w3.org/2000/svg" version="1.1">
 <metadata>
  <rdf:RDF xmlns:dc="http://purl.org/dc/elements/1.1/" xmlns:cc="http://creativecommons.org/ns#" xmlns:rdf="http://www.w3.org/1999/02/22-rdf-syntax-ns#">
   <cc:Work>
    <dc:type rdf:resource="http://purl.org/dc/dcmitype/StillImage"/>
    <dc:format>image/svg+xml</dc:format>
    <dc:creator>
     <cc:Agent>
      <dc:title>Matplotlib v3.11.2, https://matplotlib.org/</dc:title>
     </cc:Agent>
    </dc:creator>
   </cc:Work>
  </rdf:RDF>
 </metadata>
 <defs>
  <style type="text/css">*{stroke-linejoin: round; stroke-linecap: butt}</style>
 </defs>
 <g id="figure_1">
  <g id="patch_1">
   <path d="M 0 285.829844 
L 552.420469 285.829844 
L 552.420469 0 
L 0 0 
z
" style="fill: #ffffff"/>
  </g>
  <g id="axes_1">
   <g id="patch_2">
    <path d="M 40.554492 260.189414 
L 545.220469 260.189414 
L 545.220469 34.739062 
L 40.554492 34.739062 
z
" style="fill: #ffffff"/>
   </g>
   <g id="patch_3">
    <path d="M 63.493855 260.189414 
L 267.3993 260.189414 
L 267.3993 72.314121 
L 63.493855 72.314121 
z
" clip-path="url(#pa30d884ba3)" style="fill: #bc632f"/>
   </g>
   <g id="patch_4">
    <path d="M 318.375661 260.189414 
L 522.281106 260.189414 
L 522.281106 260.189414 
L 318.375661 260.189414 
z
" clip-path="url(#pa30d884ba3)" style="fill: #176b77"/>
   </g>
   <g id="matplotlib.axis_1">
    <g id="xtick_1">
     <g id="line2d_1">
      <defs>
       <path id="m19c6227e6a" d="M 0 0 
L 0 3.5 
" style="stroke: #273949; stroke-width: 0.8"/>
      </defs>
      <g>
       <use xlink:href="#m19c6227e6a" x="165.446577" y="260.189414" style="fill: #273949; stroke: #273949; stroke-width: 0.8"/>
      </g>
     </g>
     <g id="text_1">
      <!-- 均衡五指标 -->
      <g style="fill: #273949" transform="translate(137.946577 276.25582) scale(0.11 -0.11)">
       <defs>
        <path id="SimSun-d77" d="M 4075 4875 
L 3825 4725 
Q 3650 4325 3475 3925 
L 5400 3925 
L 5625 4175 
L 5975 3850 
L 5775 3675 
Q 5725 800 5612 337 
Q 5500 -125 5275 -312 
Q 5050 -500 4725 -625 
Q 4625 -250 3800 -25 
L 3800 100 
Q 4575 -50 4887 -12 
Q 5200 25 5287 750 
Q 5375 1475 5425 3775 
L 3425 3775 
Q 2975 2950 2500 2450 
L 2400 2500 
Q 2875 3200 3150 3950 
Q 3425 4700 3475 5200 
L 4075 4875 
z
M 3500 3175 
Q 4075 2850 4237 2637 
Q 4400 2425 4400 2300 
Q 4400 2175 4287 2025 
Q 4175 1875 4125 1875 
Q 4050 1875 3975 2125 
Q 3875 2500 3425 3100 
L 3500 3175 
z
M 4975 1750 
Q 4525 1425 3850 1000 
Q 3150 550 2900 225 
L 2525 700 
Q 2875 800 3462 1075 
Q 4050 1350 4925 1850 
L 4975 1750 
z
M 1700 1100 
L 2775 1500 
L 2825 1375 
Q 1875 925 1325 637 
Q 775 350 650 175 
L 275 675 
Q 950 850 1350 1000 
L 1350 3150 
L 750 3150 
L 525 3100 
L 325 3300 
L 1350 3300 
Q 1350 4700 1325 5175 
L 1925 4875 
L 1700 4675 
L 1700 3300 
L 1975 3300 
L 2250 3575 
L 2650 3150 
L 1700 3150 
L 1700 1100 
z
" transform="scale(0.015625)"/>
        <path id="SimSun-3e91" d="M 1350 5075 
L 1825 4725 
L 1625 4625 
Q 1000 3775 350 3300 
L 300 3375 
Q 775 3850 1037 4312 
Q 1300 4775 1350 5075 
z
M 1050 -625 
Q 1075 25 1075 2200 
Q 750 1800 300 1475 
L 250 1550 
Q 750 2050 1062 2600 
Q 1375 3150 1500 3525 
L 1925 3200 
L 1725 3100 
Q 1525 2775 1300 2450 
L 1550 2300 
L 1375 2175 
Q 1375 100 1400 -400 
L 1050 -625 
z
M 4250 4475 
L 5400 4475 
L 5650 4725 
L 6025 4325 
L 4950 4325 
Q 4750 4325 4475 4250 
L 4250 4475 
z
M 4225 -25 
Q 4750 -100 4912 -112 
Q 5075 -125 5075 125 
L 5075 3050 
Q 4675 3050 4400 2975 
L 4175 3200 
L 5450 3200 
L 5725 3475 
L 6125 3050 
L 5375 3050 
L 5375 -75 
Q 5375 -275 5262 -387 
Q 5150 -500 4875 -600 
Q 4850 -350 4225 -150 
L 4225 -25 
z
M 4100 3300 
Q 4100 2100 4125 1700 
L 3800 1550 
L 3800 1750 
L 3000 1750 
L 3375 1550 
L 3200 1425 
Q 3175 1225 3175 1125 
L 3875 1125 
L 4150 1400 
L 4550 975 
L 3150 975 
Q 3125 875 3100 775 
Q 3675 475 3850 325 
Q 4025 175 4025 25 
Q 4025 -50 3962 -162 
Q 3900 -275 3875 -275 
Q 3775 -275 3675 -50 
Q 3475 325 3075 675 
Q 2875 125 2500 -137 
Q 2125 -400 1550 -600 
L 1500 -525 
Q 2000 -300 2362 50 
Q 2725 400 2825 975 
L 2500 975 
Q 2175 975 1900 900 
L 1675 1125 
L 2850 1125 
Q 2875 1500 2875 1750 
L 2425 1750 
L 2425 1650 
L 2100 1450 
Q 2125 1975 2125 3600 
Q 2025 3475 1875 3350 
L 1800 3400 
Q 2125 3800 2362 4312 
Q 2600 4825 2675 5225 
L 3150 4925 
L 2975 4825 
Q 2825 4600 2700 4375 
L 3425 4375 
L 3650 4625 
L 4025 4250 
Q 3900 4225 3737 4100 
Q 3575 3975 3225 3500 
L 3750 3500 
L 3975 3725 
L 4275 3425 
L 4100 3300 
z
M 3075 3500 
L 3450 4225 
L 2650 4225 
Q 2475 3975 2200 3650 
L 2400 3500 
L 3075 3500 
z
M 2425 3350 
L 2425 2725 
L 2975 2725 
L 2975 3350 
L 2425 3350 
z
M 3250 3350 
L 3250 2725 
L 3800 2725 
L 3800 3350 
L 3250 3350 
z
M 2425 2575 
L 2425 1900 
L 2975 1900 
L 2975 2575 
L 2425 2575 
z
M 3250 2575 
L 3250 1900 
L 3800 1900 
L 3800 2575 
L 3250 2575 
z
" transform="scale(0.015625)"/>
        <path id="SimSun-4c4" d="M 4800 2450 
L 4700 -75 
L 5175 -75 
L 5575 325 
L 6125 -225 
L 1175 -225 
Q 850 -225 575 -300 
L 350 -75 
L 2125 -75 
L 2525 2525 
L 1775 2525 
Q 1450 2525 1175 2450 
L 950 2675 
L 2550 2675 
L 2800 4475 
L 1500 4475 
Q 1175 4475 900 4400 
L 675 4625 
L 4875 4625 
L 5225 4975 
L 5725 4475 
L 3175 4475 
L 2900 2675 
L 4400 2675 
L 4625 2950 
L 5025 2625 
L 4800 2450 
z
M 4350 -75 
L 4450 2525 
L 2875 2525 
L 2475 -75 
L 4350 -75 
z
" transform="scale(0.015625)"/>
        <path id="SimSun-1937" d="M 3000 3200 
Q 3000 4875 2975 5175 
L 3575 4900 
L 3350 4700 
L 3350 3800 
Q 3825 3975 4375 4287 
Q 4925 4600 5150 4850 
L 5525 4375 
Q 5325 4375 4825 4175 
Q 4300 3975 3350 3675 
L 3350 3250 
Q 3350 2925 3725 2950 
L 5200 2950 
Q 5400 2975 5450 3175 
Q 5500 3375 5550 4000 
L 5650 4000 
Q 5675 3600 5712 3362 
Q 5750 3125 5975 3050 
Q 5825 2675 5400 2675 
L 3475 2675 
Q 2975 2650 3000 3200 
z
M 5475 1850 
L 5475 225 
Q 5475 25 5500 -375 
L 5125 -525 
L 5125 -50 
L 3400 -50 
L 3400 -400 
L 3025 -575 
Q 3050 100 3050 925 
Q 3050 1750 3025 2300 
L 3400 2075 
L 5075 2075 
L 5250 2325 
L 5675 2025 
L 5475 1850 
z
M 3400 1925 
L 3400 1075 
L 5125 1075 
L 5125 1925 
L 3400 1925 
z
M 3400 925 
L 3400 100 
L 5125 100 
L 5125 925 
L 3400 925 
z
M 1450 3750 
Q 1450 4750 1425 5225 
L 2025 4925 
L 1800 4750 
L 1800 3750 
L 2125 3750 
L 2425 4050 
L 2875 3600 
L 1800 3600 
L 1800 2450 
L 2650 2900 
L 2700 2825 
L 1800 2200 
L 1800 75 
Q 1800 -375 1275 -600 
Q 1275 -300 550 -75 
L 550 25 
Q 1100 -50 1275 -37 
Q 1450 -25 1450 300 
L 1450 2000 
Q 1100 1775 725 1500 
L 650 1350 
L 325 1800 
Q 625 1900 1450 2300 
L 1450 3600 
L 1175 3600 
Q 850 3600 575 3525 
L 350 3750 
L 1450 3750 
z
" transform="scale(0.015625)"/>
        <path id="SimSun-1e37" d="M 4775 2225 
Q 5725 1275 5825 1050 
Q 5925 825 5925 700 
Q 5925 525 5825 375 
Q 5725 225 5700 225 
Q 5575 225 5475 650 
Q 5300 1225 4700 2175 
L 4775 2225 
z
M 2750 4600 
L 4975 4600 
L 5275 4900 
L 5725 4450 
L 3175 4450 
L 2950 4400 
L 2750 4600 
z
M 3100 75 
Q 3775 -50 3900 -25 
Q 4025 0 4025 175 
L 4025 2950 
L 2800 2950 
L 2575 2900 
L 2375 3100 
L 5350 3100 
L 5675 3425 
L 6150 2950 
L 4400 2950 
L 4400 -25 
Q 4375 -425 3850 -600 
Q 3850 -300 3100 -50 
L 3100 75 
z
M 3125 2275 
L 3675 1950 
L 3425 1825 
Q 2800 700 2100 25 
L 2025 100 
Q 2725 1025 3125 2275 
z
M 1675 2725 
Q 1675 25 1700 -475 
L 1300 -625 
Q 1325 450 1325 2325 
Q 950 1450 350 700 
L 275 800 
Q 975 1925 1325 3475 
L 700 3475 
L 475 3425 
L 275 3625 
L 1325 3625 
Q 1325 4575 1300 5275 
L 1900 4975 
L 1675 4800 
L 1675 3625 
L 2000 3625 
L 2275 3900 
L 2700 3475 
L 1675 3475 
L 1675 2850 
Q 2150 2600 2312 2425 
Q 2475 2250 2475 2125 
Q 2475 2050 2400 1912 
Q 2325 1775 2275 1775 
Q 2200 1775 2100 2075 
Q 1925 2475 1675 2725 
z
" transform="scale(0.015625)"/>
       </defs>
       <use xlink:href="#SimSun-d77"/>
       <use xlink:href="#SimSun-3e91" transform="translate(100 0)"/>
       <use xlink:href="#SimSun-4c4" transform="translate(200 0)"/>
       <use xlink:href="#SimSun-1937" transform="translate(300 0)"/>
       <use xlink:href="#SimSun-1e37" transform="translate(400 0)"/>
      </g>
     </g>
    </g>
    <g id="xtick_2">
     <g id="line2d_2">
      <g>
       <use xlink:href="#m19c6227e6a" x="420.328384" y="260.189414" style="fill: #273949; stroke: #273949; stroke-width: 0.8"/>
      </g>
     </g>
     <g id="text_2">
      <!-- MAB权重置零 -->
      <g style="fill: #273949" transform="translate(385.796977 276.169883) scale(0.11 -0.11)">
       <defs>
        <path id="TimesNewRomanPSMT-30" d="M 2619 0 
L 981 3566 
L 981 734 
Q 981 344 1066 247 
Q 1181 116 1431 116 
L 1581 116 
L 1581 0 
L 106 0 
L 106 116 
L 256 116 
Q 525 116 638 278 
Q 706 378 706 734 
L 706 3503 
Q 706 3784 644 3909 
Q 600 4000 483 4061 
Q 366 4122 106 4122 
L 106 4238 
L 1306 4238 
L 2844 922 
L 4356 4238 
L 5556 4238 
L 5556 4122 
L 5409 4122 
Q 5138 4122 5025 3959 
Q 4956 3859 4956 3503 
L 4956 734 
Q 4956 344 5044 247 
Q 5159 116 5409 116 
L 5556 116 
L 5556 0 
L 3756 0 
L 3756 116 
L 3906 116 
Q 4178 116 4288 278 
Q 4356 378 4356 734 
L 4356 3566 
L 2722 0 
L 2619 0 
z
" transform="scale(0.015625)"/>
        <path id="TimesNewRomanPSMT-24" d="M 2928 1419 
L 1288 1419 
L 1000 750 
Q 894 503 894 381 
Q 894 284 986 211 
Q 1078 138 1384 116 
L 1384 0 
L 50 0 
L 50 116 
Q 316 163 394 238 
Q 553 388 747 847 
L 2238 4334 
L 2347 4334 
L 3822 809 
Q 4000 384 4145 257 
Q 4291 131 4550 116 
L 4550 0 
L 2878 0 
L 2878 116 
Q 3131 128 3220 200 
Q 3309 272 3309 375 
Q 3309 513 3184 809 
L 2928 1419 
z
M 2841 1650 
L 2122 3363 
L 1384 1650 
L 2841 1650 
z
" transform="scale(0.015625)"/>
        <path id="TimesNewRomanPSMT-25" d="M 2956 2163 
Q 3397 2069 3616 1863 
Q 3919 1575 3919 1159 
Q 3919 844 3719 555 
Q 3519 266 3170 133 
Q 2822 0 2106 0 
L 106 0 
L 106 116 
L 266 116 
Q 531 116 647 284 
Q 719 394 719 750 
L 719 3488 
Q 719 3881 628 3984 
Q 506 4122 266 4122 
L 106 4122 
L 106 4238 
L 1938 4238 
Q 2450 4238 2759 4163 
Q 3228 4050 3475 3764 
Q 3722 3478 3722 3106 
Q 3722 2788 3528 2536 
Q 3334 2284 2956 2163 
z
M 1319 2331 
Q 1434 2309 1582 2298 
Q 1731 2288 1909 2288 
Q 2366 2288 2595 2386 
Q 2825 2484 2947 2687 
Q 3069 2891 3069 3131 
Q 3069 3503 2766 3765 
Q 2463 4028 1881 4028 
Q 1569 4028 1319 3959 
L 1319 2331 
z
M 1319 306 
Q 1681 222 2034 222 
Q 2600 222 2897 476 
Q 3194 731 3194 1106 
Q 3194 1353 3059 1581 
Q 2925 1809 2622 1940 
Q 2319 2072 1872 2072 
Q 1678 2072 1540 2065 
Q 1403 2059 1319 2044 
L 1319 306 
z
" transform="scale(0.015625)"/>
        <path id="SimSun-1d73" d="M 3300 4250 
Q 3500 2475 4125 1500 
Q 4725 2525 5025 4250 
L 3300 4250 
z
M 2650 4400 
L 5000 4400 
L 5175 4675 
L 5625 4325 
L 5400 4150 
Q 5025 2225 4325 1150 
Q 5225 150 6150 -25 
L 6150 -125 
Q 5700 -175 5600 -450 
Q 4650 125 4100 925 
Q 3125 -100 2000 -575 
L 1950 -500 
Q 3175 225 3900 1225 
Q 3325 2375 3175 4250 
L 2875 4175 
L 2650 4400 
z
M 1825 2725 
Q 1825 25 1850 -475 
L 1450 -650 
Q 1475 525 1475 2425 
Q 1050 1375 300 575 
L 250 650 
Q 1075 1850 1450 3550 
L 650 3550 
L 425 3500 
L 225 3700 
L 1475 3700 
Q 1475 4475 1450 5225 
L 2050 4975 
L 1825 4775 
L 1825 3700 
L 2225 3700 
L 2525 4000 
L 2975 3550 
L 1825 3550 
L 1825 2875 
Q 2475 2600 2662 2425 
Q 2850 2250 2850 2075 
Q 2850 1975 2787 1812 
Q 2725 1650 2675 1650 
Q 2600 1650 2475 1925 
Q 2275 2325 1825 2725 
z
" transform="scale(0.015625)"/>
        <path id="SimSun-47fd" d="M 3325 2275 
L 3325 1600 
L 4575 1600 
L 4575 2275 
L 3325 2275 
z
M 1400 1150 
Q 1425 1750 1425 2300 
Q 1425 2850 1400 3425 
L 1775 3225 
L 3000 3225 
L 3000 3800 
L 1400 3800 
Q 1075 3800 800 3725 
L 575 3950 
L 3000 3950 
L 3000 4550 
Q 1700 4500 1125 4475 
L 1125 4575 
Q 2350 4650 3350 4812 
Q 4350 4975 4725 5175 
L 5100 4725 
Q 4800 4750 4475 4725 
Q 4125 4675 3325 4600 
L 3325 3950 
L 4975 3950 
L 5350 4300 
L 5825 3800 
L 3325 3800 
L 3325 3225 
L 4550 3225 
L 4725 3475 
L 5100 3175 
L 4900 3000 
Q 4900 1950 4925 1325 
L 4575 1150 
L 4575 1450 
L 3325 1450 
L 3325 775 
L 4675 775 
L 5000 1100 
L 5450 625 
L 3325 625 
L 3325 -125 
L 5200 -125 
L 5600 275 
L 6100 -275 
L 1100 -275 
Q 775 -275 500 -350 
L 275 -125 
L 3000 -125 
L 3000 625 
L 1725 625 
Q 1400 625 1125 550 
L 900 775 
L 3000 775 
L 3000 1450 
L 1775 1450 
L 1775 1300 
L 1400 1150 
z
M 1775 3075 
L 1775 2425 
L 3000 2425 
L 3000 3075 
L 1775 3075 
z
M 1775 2275 
L 1775 1600 
L 3000 1600 
L 3000 2275 
L 1775 2275 
z
M 3325 3075 
L 3325 2425 
L 4575 2425 
L 4575 3075 
L 3325 3075 
z
" transform="scale(0.015625)"/>
        <path id="SimSun-359e" d="M 1400 4750 
L 1400 3925 
L 2375 3925 
L 2375 4750 
L 1400 4750 
z
M 2725 4750 
L 2725 3925 
L 3700 3925 
L 3700 4750 
L 2725 4750 
z
M 4025 4750 
L 4025 3925 
L 5025 3925 
L 5025 4750 
L 4025 4750 
z
M 1025 5100 
L 1400 4925 
L 5000 4925 
L 5175 5150 
L 5550 4875 
L 5400 4725 
Q 5400 4400 5400 4162 
Q 5400 3925 5425 3675 
L 5025 3550 
L 5025 3750 
L 1400 3750 
L 1400 3625 
L 1025 3500 
Q 1050 4000 1050 4425 
Q 1050 4850 1025 5100 
z
M 1900 350 
L 1900 -200 
L 4450 -200 
L 4450 350 
L 1900 350 
z
M 675 3225 
L 2900 3225 
Q 2925 3500 2925 3750 
L 3500 3550 
L 3325 3450 
L 3250 3225 
L 4850 3225 
L 5200 3500 
L 5650 3050 
L 3225 3050 
Q 3150 2800 3075 2575 
L 4400 2575 
L 4575 2850 
L 5000 2550 
L 4800 2325 
L 4800 -200 
L 5300 -200 
L 5675 125 
L 6175 -375 
L 1125 -375 
Q 750 -375 450 -450 
L 200 -200 
L 1525 -200 
L 1525 2100 
Q 1525 2375 1500 2750 
L 1900 2575 
L 2800 2575 
L 2875 3050 
L 1575 3050 
Q 1225 3050 925 2975 
L 675 3225 
z
M 1900 2400 
L 1900 1900 
L 4450 1900 
L 4450 2400 
L 1900 2400 
z
M 1900 1725 
L 1900 1225 
L 4450 1225 
L 4450 1725 
L 1900 1725 
z
M 1900 1050 
L 1900 525 
L 4450 525 
L 4450 1050 
L 1900 1050 
z
" transform="scale(0.015625)"/>
        <path id="SimSun-4d26" d="M 2750 2025 
L 2775 2100 
Q 3250 1925 3362 1800 
Q 3475 1675 3475 1575 
Q 3475 1475 3400 1350 
Q 3325 1225 3275 1225 
Q 3225 1225 3175 1425 
Q 3075 1700 2750 2025 
z
M 3050 3075 
L 3475 2725 
L 3250 2625 
Q 3700 2225 4350 1987 
Q 5000 1750 6125 1725 
L 6125 1625 
Q 5725 1550 5650 1300 
Q 4925 1425 4262 1737 
Q 3600 2050 3150 2550 
Q 2475 1950 1750 1662 
Q 1025 1375 275 1225 
L 275 1325 
Q 1250 1600 1975 2062 
Q 2700 2525 3050 3075 
z
M 1225 1200 
L 4225 1200 
L 4425 1400 
L 4850 925 
Q 4575 925 4187 737 
Q 3800 550 3300 200 
Q 3975 0 4087 -187 
Q 4200 -375 4162 -512 
Q 4125 -650 4075 -650 
Q 3950 -650 3700 -425 
Q 3275 -75 2025 425 
L 2050 525 
Q 2600 400 3125 250 
L 4175 1050 
L 2050 1050 
Q 1725 1050 1450 975 
L 1225 1200 
z
M 1325 3575 
L 2500 3575 
L 2500 3425 
L 1325 3425 
L 1325 3575 
z
M 3800 3575 
L 4975 3575 
L 4975 3425 
L 3800 3425 
L 3800 3575 
z
M 1300 2950 
L 2500 2950 
L 2500 2800 
L 1300 2800 
L 1300 2950 
z
M 5150 3400 
L 5400 4075 
L 3350 4075 
Q 3350 3450 3375 3250 
L 3000 3100 
Q 3025 3675 3025 4075 
L 1100 4075 
Q 1150 3675 1062 3512 
Q 975 3350 775 3337 
Q 575 3325 537 3412 
Q 500 3500 675 3700 
Q 850 3875 975 4450 
L 1075 4450 
L 1100 4225 
L 3025 4225 
L 3025 4725 
L 2025 4725 
Q 1700 4725 1425 4650 
L 1200 4875 
L 4525 4875 
L 4875 5175 
L 5300 4725 
L 3350 4725 
L 3350 4225 
L 5375 4225 
L 5575 4450 
L 6000 4025 
Q 5650 4025 5250 3375 
L 5150 3400 
z
M 3800 2950 
L 5025 2950 
L 5025 2800 
L 3800 2800 
L 3800 2950 
z
" transform="scale(0.015625)"/>
       </defs>
       <use xlink:href="#TimesNewRomanPSMT-30"/>
       <use xlink:href="#TimesNewRomanPSMT-24" transform="translate(88.921875 0)"/>
       <use xlink:href="#TimesNewRomanPSMT-25" transform="translate(161.140625 0)"/>
       <use xlink:href="#SimSun-1d73" transform="translate(227.84375 0)"/>
       <use xlink:href="#SimSun-47fd" transform="translate(327.84375 0)"/>
       <use xlink:href="#SimSun-359e" transform="translate(427.84375 0)"/>
       <use xlink:href="#SimSun-4d26" transform="translate(527.84375 0)"/>
      </g>
     </g>
    </g>
   </g>
   <g id="matplotlib.axis_2">
    <g id="ytick_1">
     <g id="line2d_3">
      <defs>
       <path id="m911aa57155" d="M 0 0 
L -3.5 0 
" style="stroke: #273949; stroke-width: 0.8"/>
      </defs>
      <g>
       <use xlink:href="#m911aa57155" x="40.554492" y="260.189414" style="fill: #273949; stroke: #273949; stroke-width: 0.8"/>
      </g>
     </g>
     <g id="text_3">
      <!-- 0 -->
      <g style="fill: #273949" transform="translate(28.054492 264.002891) scale(0.11 -0.11)">
       <defs>
        <path id="TimesNewRomanPSMT-13" d="M 231 2094 
Q 231 2819 450 3342 
Q 669 3866 1031 4122 
Q 1313 4325 1613 4325 
Q 2100 4325 2488 3828 
Q 2972 3213 2972 2159 
Q 2972 1422 2759 906 
Q 2547 391 2217 158 
Q 1888 -75 1581 -75 
Q 975 -75 572 641 
Q 231 1244 231 2094 
z
M 844 2016 
Q 844 1141 1059 588 
Q 1238 122 1591 122 
Q 1759 122 1940 273 
Q 2122 425 2216 781 
Q 2359 1319 2359 2297 
Q 2359 3022 2209 3506 
Q 2097 3866 1919 4016 
Q 1791 4119 1609 4119 
Q 1397 4119 1231 3928 
Q 1006 3669 925 3112 
Q 844 2556 844 2016 
z
" transform="scale(0.015625)"/>
       </defs>
       <use xlink:href="#TimesNewRomanPSMT-13"/>
      </g>
     </g>
    </g>
    <g id="ytick_2">
     <g id="line2d_4">
      <g>
       <use xlink:href="#m911aa57155" x="40.554492" y="227.189667" style="fill: #273949; stroke: #273949; stroke-width: 0.8"/>
      </g>
     </g>
     <g id="text_4">
      <!-- 2 -->
      <g style="fill: #273949" transform="translate(28.054492 231.003144) scale(0.11 -0.11)">
       <defs>
        <path id="TimesNewRomanPSMT-15" d="M 2934 816 
L 2638 0 
L 138 0 
L 138 116 
Q 1241 1122 1691 1759 
Q 2141 2397 2141 2925 
Q 2141 3328 1894 3587 
Q 1647 3847 1303 3847 
Q 991 3847 742 3664 
Q 494 3481 375 3128 
L 259 3128 
Q 338 3706 661 4015 
Q 984 4325 1469 4325 
Q 1984 4325 2329 3994 
Q 2675 3663 2675 3213 
Q 2675 2891 2525 2569 
Q 2294 2063 1775 1497 
Q 997 647 803 472 
L 1909 472 
Q 2247 472 2383 497 
Q 2519 522 2628 598 
Q 2738 675 2819 816 
L 2934 816 
z
" transform="scale(0.015625)"/>
       </defs>
       <use xlink:href="#TimesNewRomanPSMT-15"/>
      </g>
     </g>
    </g>
    <g id="ytick_3">
     <g id="line2d_5">
      <g>
       <use xlink:href="#m911aa57155" x="40.554492" y="194.189921" style="fill: #273949; stroke: #273949; stroke-width: 0.8"/>
      </g>
     </g>
     <g id="text_5">
      <!-- 4 -->
      <g style="fill: #273949" transform="translate(28.054492 198.003397) scale(0.11 -0.11)">
       <defs>
        <path id="TimesNewRomanPSMT-17" d="M 2978 1563 
L 2978 1119 
L 2409 1119 
L 2409 0 
L 1894 0 
L 1894 1119 
L 100 1119 
L 100 1519 
L 2066 4325 
L 2409 4325 
L 2409 1563 
L 2978 1563 
z
M 1894 1563 
L 1894 3666 
L 406 1563 
L 1894 1563 
z
" transform="scale(0.015625)"/>
       </defs>
       <use xlink:href="#TimesNewRomanPSMT-17"/>
      </g>
     </g>
    </g>
    <g id="ytick_4">
     <g id="line2d_6">
      <g>
       <use xlink:href="#m911aa57155" x="40.554492" y="161.190174" style="fill: #273949; stroke: #273949; stroke-width: 0.8"/>
      </g>
     </g>
     <g id="text_6">
      <!-- 6 -->
      <g style="fill: #273949" transform="translate(28.054492 165.003651) scale(0.11 -0.11)">
       <defs>
        <path id="TimesNewRomanPSMT-19" d="M 2869 4325 
L 2869 4209 
Q 2456 4169 2195 4045 
Q 1934 3922 1679 3669 
Q 1425 3416 1258 3105 
Q 1091 2794 978 2366 
Q 1428 2675 1881 2675 
Q 2316 2675 2634 2325 
Q 2953 1975 2953 1425 
Q 2953 894 2631 456 
Q 2244 -75 1606 -75 
Q 1172 -75 869 213 
Q 275 772 275 1663 
Q 275 2231 503 2743 
Q 731 3256 1154 3653 
Q 1578 4050 1965 4187 
Q 2353 4325 2688 4325 
L 2869 4325 
z
M 925 2138 
Q 869 1716 869 1456 
Q 869 1156 980 804 
Q 1091 453 1309 247 
Q 1469 100 1697 100 
Q 1969 100 2183 356 
Q 2397 613 2397 1088 
Q 2397 1622 2184 2012 
Q 1972 2403 1581 2403 
Q 1463 2403 1327 2353 
Q 1191 2303 925 2138 
z
" transform="scale(0.015625)"/>
       </defs>
       <use xlink:href="#TimesNewRomanPSMT-19"/>
      </g>
     </g>
    </g>
    <g id="ytick_5">
     <g id="line2d_7">
      <g>
       <use xlink:href="#m911aa57155" x="40.554492" y="128.190428" style="fill: #273949; stroke: #273949; stroke-width: 0.8"/>
      </g>
     </g>
     <g id="text_7">
      <!-- 8 -->
      <g style="fill: #273949" transform="translate(28.054492 132.003904) scale(0.11 -0.11)">
       <defs>
        <path id="TimesNewRomanPSMT-1b" d="M 1228 2134 
Q 725 2547 579 2797 
Q 434 3047 434 3316 
Q 434 3728 753 4026 
Q 1072 4325 1600 4325 
Q 2113 4325 2425 4047 
Q 2738 3769 2738 3413 
Q 2738 3175 2569 2928 
Q 2400 2681 1866 2347 
Q 2416 1922 2594 1678 
Q 2831 1359 2831 1006 
Q 2831 559 2490 242 
Q 2150 -75 1597 -75 
Q 994 -75 656 303 
Q 388 606 388 966 
Q 388 1247 577 1523 
Q 766 1800 1228 2134 
z
M 1719 2469 
Q 2094 2806 2194 3001 
Q 2294 3197 2294 3444 
Q 2294 3772 2109 3958 
Q 1925 4144 1606 4144 
Q 1288 4144 1088 3959 
Q 888 3775 888 3528 
Q 888 3366 970 3203 
Q 1053 3041 1206 2894 
L 1719 2469 
z
M 1375 2016 
Q 1116 1797 991 1539 
Q 866 1281 866 981 
Q 866 578 1086 336 
Q 1306 94 1647 94 
Q 1984 94 2187 284 
Q 2391 475 2391 747 
Q 2391 972 2272 1150 
Q 2050 1481 1375 2016 
z
" transform="scale(0.015625)"/>
       </defs>
       <use xlink:href="#TimesNewRomanPSMT-1b"/>
      </g>
     </g>
    </g>
    <g id="ytick_6">
     <g id="line2d_8">
      <g>
       <use xlink:href="#m911aa57155" x="40.554492" y="95.190681" style="fill: #273949; stroke: #273949; stroke-width: 0.8"/>
      </g>
     </g>
     <g id="text_8">
      <!-- 10 -->
      <g style="fill: #273949" transform="translate(22.554492 99.004158) scale(0.11 -0.11)">
       <defs>
        <path id="TimesNewRomanPSMT-14" d="M 750 3822 
L 1781 4325 
L 1884 4325 
L 1884 747 
Q 1884 391 1914 303 
Q 1944 216 2037 169 
Q 2131 122 2419 116 
L 2419 0 
L 825 0 
L 825 116 
Q 1125 122 1212 167 
Q 1300 213 1334 289 
Q 1369 366 1369 747 
L 1369 3034 
Q 1369 3497 1338 3628 
Q 1316 3728 1258 3775 
Q 1200 3822 1119 3822 
Q 1003 3822 797 3725 
L 750 3822 
z
" transform="scale(0.015625)"/>
       </defs>
       <use xlink:href="#TimesNewRomanPSMT-14"/>
       <use xlink:href="#TimesNewRomanPSMT-13" transform="translate(50 0)"/>
      </g>
     </g>
    </g>
    <g id="ytick_7">
     <g id="line2d_9">
      <g>
       <use xlink:href="#m911aa57155" x="40.554492" y="62.190935" style="fill: #273949; stroke: #273949; stroke-width: 0.8"/>
      </g>
     </g>
     <g id="text_9">
      <!-- 12 -->
      <g style="fill: #273949" transform="translate(22.554492 66.004411) scale(0.11 -0.11)">
       <use xlink:href="#TimesNewRomanPSMT-14"/>
       <use xlink:href="#TimesNewRomanPSMT-15" transform="translate(50 0)"/>
      </g>
     </g>
    </g>
    <g id="text_10">
     <!-- AIV 增量（分） -->
     <g style="fill: #273949" transform="translate(16.180469 186.014941) rotate(-90) scale(0.11 -0.11)">
      <defs>
       <path id="TimesNewRomanPSMT-2c" d="M 1975 116 
L 1975 0 
L 159 0 
L 159 116 
L 309 116 
Q 572 116 691 269 
Q 766 369 766 750 
L 766 3488 
Q 766 3809 725 3913 
Q 694 3991 597 4047 
Q 459 4122 309 4122 
L 159 4122 
L 159 4238 
L 1975 4238 
L 1975 4122 
L 1822 4122 
Q 1563 4122 1444 3969 
Q 1366 3869 1366 3488 
L 1366 750 
Q 1366 428 1406 325 
Q 1438 247 1538 191 
Q 1672 116 1822 116 
L 1975 116 
z
" transform="scale(0.015625)"/>
       <path id="TimesNewRomanPSMT-39" d="M 4544 4238 
L 4544 4122 
Q 4319 4081 4203 3978 
Q 4038 3825 3909 3509 
L 2431 -97 
L 2316 -97 
L 728 3556 
Q 606 3838 556 3900 
Q 478 3997 364 4051 
Q 250 4106 56 4122 
L 56 4238 
L 1788 4238 
L 1788 4122 
Q 1494 4094 1406 4022 
Q 1319 3950 1319 3838 
Q 1319 3681 1463 3350 
L 2541 866 
L 3541 3319 
Q 3688 3681 3688 3822 
Q 3688 3913 3597 3995 
Q 3506 4078 3291 4113 
Q 3275 4116 3238 4122 
L 3238 4238 
L 4544 4238 
z
" transform="scale(0.015625)"/>
       <path id="TimesNewRomanPSMT-3" transform="scale(0.015625)"/>
       <path id="SimSun-ece" d="M 3100 5175 
Q 3825 4775 3812 4562 
Q 3800 4350 3725 4275 
Q 3650 4200 3600 4200 
Q 3525 4200 3450 4425 
Q 3350 4725 3025 5125 
L 3100 5175 
z
M 3025 3650 
Q 3525 3350 3612 3200 
Q 3700 3050 3700 2975 
Q 3700 2825 3600 2700 
Q 3500 2575 3450 2575 
Q 3375 2575 3350 2775 
Q 3275 3100 2975 3600 
L 3025 3650 
z
M 4925 3675 
L 5325 3350 
Q 5075 3225 4500 2525 
L 4425 2575 
Q 4775 3175 4925 3675 
z
M 3175 1475 
L 3175 825 
L 5050 825 
L 5050 1475 
L 3175 1475 
z
M 3175 675 
L 3175 0 
L 5050 0 
L 5050 675 
L 3175 675 
z
M 2525 4325 
L 2850 4100 
L 4325 4100 
Q 4750 4775 4900 5225 
L 5325 4875 
Q 5075 4800 4475 4100 
L 5350 4100 
L 5525 4325 
L 5875 4025 
L 5700 3875 
L 5700 2650 
Q 5700 2450 5725 2025 
L 5400 1900 
L 5400 2150 
L 2850 2150 
L 2850 2000 
L 2525 1875 
Q 2550 2450 2550 3137 
Q 2550 3825 2525 4325 
z
M 2850 3950 
L 2850 2300 
L 3950 2300 
L 3950 3950 
L 2850 3950 
z
M 4250 3950 
L 4250 2300 
L 5400 2300 
L 5400 3950 
L 4250 3950 
z
M 2825 1825 
L 3175 1625 
L 5000 1625 
L 5175 1875 
L 5550 1575 
L 5375 1400 
L 5375 475 
Q 5375 150 5400 -400 
L 5050 -550 
L 5050 -150 
L 3175 -150 
L 3175 -450 
L 2825 -600 
Q 2850 0 2850 637 
Q 2850 1275 2825 1825 
z
M 1200 5125 
L 1750 4875 
L 1550 4700 
L 1550 3425 
L 1750 3425 
L 2025 3700 
L 2450 3275 
L 1550 3275 
L 1550 1150 
L 2450 1425 
L 2475 1325 
Q 725 600 575 325 
L 275 775 
Q 625 850 1225 1050 
L 1225 3275 
L 1100 3275 
Q 775 3275 500 3200 
L 275 3425 
L 1225 3425 
L 1225 4250 
Q 1225 4650 1200 5125 
z
" transform="scale(0.015625)"/>
       <path id="SimSun-47ff" d="M 1700 2400 
L 1700 1875 
L 3025 1875 
L 3025 2400 
L 1700 2400 
z
M 3350 2400 
L 3350 1875 
L 4625 1875 
L 4625 2400 
L 3350 2400 
z
M 1700 1725 
L 1700 1225 
L 3025 1225 
L 3025 1725 
L 1700 1725 
z
M 3350 1725 
L 3350 1225 
L 4625 1225 
L 4625 1725 
L 3350 1725 
z
M 4950 2325 
Q 4950 1350 4975 1025 
L 4625 875 
L 4625 1075 
L 3350 1075 
L 3350 525 
L 4700 525 
L 5050 825 
L 5450 375 
L 3350 375 
L 3350 -225 
L 5275 -225 
L 5650 125 
L 6075 -375 
L 1175 -375 
Q 850 -375 575 -450 
L 350 -225 
L 3025 -225 
L 3025 375 
L 1725 375 
Q 1400 375 1125 300 
L 900 525 
L 3025 525 
L 3025 1075 
L 1700 1075 
L 1700 925 
L 1350 800 
Q 1375 1300 1375 1787 
Q 1375 2275 1350 2750 
L 1700 2550 
L 4600 2550 
L 4750 2750 
L 5125 2475 
L 4950 2325 
z
M 1775 4800 
L 1775 4375 
L 4550 4375 
L 4550 4800 
L 1775 4800 
z
M 1775 4225 
L 1775 3775 
L 4550 3775 
L 4550 4225 
L 1775 4225 
z
M 4875 4750 
Q 4875 3825 4900 3525 
L 4550 3375 
L 4550 3625 
L 1775 3625 
L 1775 3400 
L 1425 3250 
Q 1450 3650 1450 4262 
Q 1450 4875 1425 5125 
L 1800 4950 
L 4500 4950 
L 4650 5175 
L 5050 4900 
L 4875 4750 
z
M 250 3125 
L 5375 3125 
L 5725 3450 
L 6150 2975 
L 950 2975 
Q 750 2975 475 2900 
L 250 3125 
z
" transform="scale(0.015625)"/>
       <path id="SimSun-2c4" d="M 5087 200 
Q 5475 -100 5425 -150 
Q 5375 -200 4950 87 
Q 4525 375 4137 850 
Q 3750 1325 3687 2100 
Q 3625 2875 4000 3487 
Q 4375 4100 4887 4462 
Q 5400 4825 5412 4762 
Q 5425 4700 5075 4425 
Q 4725 4125 4387 3600 
Q 4050 3075 4050 2250 
Q 4050 1425 4375 962 
Q 4700 500 5087 200 
z
" transform="scale(0.015625)"/>
       <path id="SimSun-836" d="M 2350 5050 
L 2850 4675 
L 2625 4550 
Q 2200 3750 1687 3125 
Q 1175 2500 375 2025 
L 325 2100 
Q 975 2625 1475 3337 
Q 1975 4050 2350 5050 
z
M 4100 4975 
L 3900 4850 
Q 4175 3850 4800 3300 
Q 5425 2750 6125 2625 
L 6125 2550 
Q 5750 2500 5600 2225 
Q 4775 2675 4287 3425 
Q 3800 4175 3625 5175 
L 4100 4975 
z
M 1375 2625 
L 4225 2625 
L 4475 2875 
L 4825 2525 
L 4625 2375 
Q 4575 400 4375 -12 
Q 4175 -425 3675 -600 
Q 3600 -200 2975 -25 
L 2975 75 
Q 3600 -25 3787 -12 
Q 3975 0 4075 275 
Q 4175 550 4275 2475 
L 2975 2475 
Q 2825 1400 2375 662 
Q 1925 -75 650 -625 
L 600 -525 
Q 1725 50 2112 837 
Q 2500 1625 2575 2475 
L 1800 2475 
L 1575 2425 
L 1375 2625 
z
" transform="scale(0.015625)"/>
       <path id="SimSun-2c5" d="M 2337 875 
Q 1925 350 1437 62 
Q 950 -225 937 -162 
Q 925 -100 1300 175 
Q 1650 425 2037 1012 
Q 2425 1600 2375 2375 
Q 2325 3150 1987 3662 
Q 1650 4175 1300 4475 
Q 925 4775 937 4837 
Q 950 4900 1412 4587 
Q 1875 4275 2325 3662 
Q 2775 3050 2762 2225 
Q 2750 1400 2337 875 
z
" transform="scale(0.015625)"/>
      </defs>
      <use xlink:href="#TimesNewRomanPSMT-24"/>
      <use xlink:href="#TimesNewRomanPSMT-2c" transform="translate(72.21875 0)"/>
      <use xlink:href="#TimesNewRomanPSMT-39" transform="translate(105.515625 0)"/>
      <use xlink:href="#TimesNewRomanPSMT-3" transform="translate(175.921875 0)"/>
      <use xlink:href="#SimSun-ece" transform="translate(200.921875 0)"/>
      <use xlink:href="#SimSun-47ff" transform="translate(300.921875 0)"/>
      <use xlink:href="#SimSun-2c4" transform="translate(400.921875 0)"/>
      <use xlink:href="#SimSun-836" transform="translate(500.921875 0)"/>
      <use xlink:href="#SimSun-2c5" transform="translate(600.921875 0)"/>
     </g>
    </g>
   </g>
   <g id="patch_5">
    <path d="M 40.554492 260.189414 
L 40.554492 34.739062 
" style="fill: none; stroke: #000000; stroke-width: 0.8; stroke-linejoin: miter; stroke-linecap: square"/>
   </g>
   <g id="patch_6">
    <path d="M 40.554492 260.189414 
L 545.220469 260.189414 
" style="fill: none; stroke: #000000; stroke-width: 0.8; stroke-linejoin: miter; stroke-linecap: square"/>
   </g>
   <g id="text_11">
    <!-- +11.39 -->
    <g style="fill: #273949" transform="translate(150.173765 64.940098) scale(0.11 -0.11)">
     <defs>
      <path id="TimesNewRomanPSMT-e" d="M 1672 441 
L 1672 2000 
L 116 2000 
L 116 2256 
L 1672 2256 
L 1672 3809 
L 1922 3809 
L 1922 2256 
L 3484 2256 
L 3484 2000 
L 1922 2000 
L 1922 441 
L 1672 441 
z
" transform="scale(0.015625)"/>
      <path id="TimesNewRomanPSMT-11" d="M 800 606 
Q 947 606 1047 504 
Q 1147 403 1147 259 
Q 1147 116 1045 14 
Q 944 -88 800 -88 
Q 656 -88 554 14 
Q 453 116 453 259 
Q 453 406 554 506 
Q 656 606 800 606 
z
" transform="scale(0.015625)"/>
      <path id="TimesNewRomanPSMT-16" d="M 325 3431 
Q 506 3859 782 4092 
Q 1059 4325 1472 4325 
Q 1981 4325 2253 3994 
Q 2459 3747 2459 3466 
Q 2459 3003 1878 2509 
Q 2269 2356 2469 2072 
Q 2669 1788 2669 1403 
Q 2669 853 2319 450 
Q 1863 -75 997 -75 
Q 569 -75 414 31 
Q 259 138 259 259 
Q 259 350 332 419 
Q 406 488 509 488 
Q 588 488 669 463 
Q 722 447 909 348 
Q 1097 250 1169 231 
Q 1284 197 1416 197 
Q 1734 197 1970 444 
Q 2206 691 2206 1028 
Q 2206 1275 2097 1509 
Q 2016 1684 1919 1775 
Q 1784 1900 1550 2001 
Q 1316 2103 1072 2103 
L 972 2103 
L 972 2197 
Q 1219 2228 1467 2375 
Q 1716 2522 1828 2728 
Q 1941 2934 1941 3181 
Q 1941 3503 1739 3701 
Q 1538 3900 1238 3900 
Q 753 3900 428 3381 
L 325 3431 
z
" transform="scale(0.015625)"/>
      <path id="TimesNewRomanPSMT-1c" d="M 338 -88 
L 338 28 
Q 744 34 1094 217 
Q 1444 400 1770 856 
Q 2097 1313 2225 1859 
Q 1734 1544 1338 1544 
Q 891 1544 572 1889 
Q 253 2234 253 2806 
Q 253 3363 572 3797 
Q 956 4325 1575 4325 
Q 2097 4325 2469 3894 
Q 2925 3359 2925 2575 
Q 2925 1869 2578 1258 
Q 2231 647 1613 244 
Q 1109 -88 516 -88 
L 338 -88 
z
M 2275 2091 
Q 2331 2497 2331 2741 
Q 2331 3044 2228 3395 
Q 2125 3747 1936 3934 
Q 1747 4122 1506 4122 
Q 1228 4122 1018 3872 
Q 809 3622 809 3128 
Q 809 2469 1088 2097 
Q 1291 1828 1588 1828 
Q 1731 1828 1928 1897 
Q 2125 1966 2275 2091 
z
" transform="scale(0.015625)"/>
     </defs>
     <use xlink:href="#TimesNewRomanPSMT-e"/>
     <use xlink:href="#TimesNewRomanPSMT-14" transform="translate(56.390625 0)"/>
     <use xlink:href="#TimesNewRomanPSMT-14" transform="translate(102.6875 0)"/>
     <use xlink:href="#TimesNewRomanPSMT-11" transform="translate(152.6875 0)"/>
     <use xlink:href="#TimesNewRomanPSMT-16" transform="translate(177.6875 0)"/>
     <use xlink:href="#TimesNewRomanPSMT-1c" transform="translate(227.6875 0)"/>
    </g>
   </g>
   <g id="text_12">
    <!-- +0.00 -->
    <g style="fill: #273949" transform="translate(407.601899 252.815391) scale(0.11 -0.11)">
     <use xlink:href="#TimesNewRomanPSMT-e"/>
     <use xlink:href="#TimesNewRomanPSMT-13" transform="translate(56.390625 0)"/>
     <use xlink:href="#TimesNewRomanPSMT-11" transform="translate(106.390625 0)"/>
     <use xlink:href="#TimesNewRomanPSMT-13" transform="translate(131.390625 0)"/>
     <use xlink:href="#TimesNewRomanPSMT-13" transform="translate(181.390625 0)"/>
    </g>
   </g>
   <g id="text_13">
    <!-- 固定标签合成案例：只增加工具种类 -->
    <g style="fill: #273949" transform="translate(180.88748 18.739062) scale(0.14 -0.14)">
     <defs>
      <path id="SimSun-d2a" d="M 4350 2325 
Q 4350 1100 4375 625 
L 4025 475 
L 4025 1000 
L 2425 1000 
L 2425 625 
L 2075 450 
Q 2100 1050 2100 1625 
Q 2100 2200 2075 2775 
L 2400 2550 
L 3025 2550 
L 3025 3450 
L 2225 3450 
Q 1900 3450 1625 3375 
L 1400 3600 
L 3025 3600 
Q 3025 4075 3000 4650 
L 3550 4375 
L 3350 4225 
L 3350 3600 
L 4250 3600 
L 4550 3900 
L 5000 3450 
L 3350 3450 
L 3350 2550 
L 3975 2550 
L 4175 2775 
L 4550 2475 
L 4350 2325 
z
M 2425 2400 
L 2425 1150 
L 4025 1150 
L 4025 2400 
L 2425 2400 
z
M 800 -625 
Q 825 25 825 325 
L 825 4075 
Q 825 4500 800 5150 
L 1150 4925 
L 5125 4925 
L 5350 5175 
L 5750 4850 
L 5525 4675 
L 5525 725 
Q 5525 225 5550 -400 
L 5175 -575 
L 5175 -25 
L 1175 -25 
L 1175 -450 
L 800 -625 
z
M 1175 4775 
L 1175 125 
L 5175 125 
L 5175 4775 
L 1175 4775 
z
" transform="scale(0.015625)"/>
      <path id="SimSun-11ca" d="M 1975 1775 
Q 1875 1450 1825 1200 
Q 2075 800 2400 537 
Q 2725 275 3025 175 
L 3025 2750 
L 1625 2750 
Q 1300 2750 1025 2675 
L 800 2900 
L 4700 2900 
L 5050 3250 
L 5550 2750 
L 3375 2750 
L 3375 1525 
L 4500 1525 
L 4825 1850 
L 5300 1375 
L 3375 1375 
L 3375 75 
Q 4075 -50 4750 -37 
Q 5425 -25 5975 25 
L 5975 -75 
Q 5550 -150 5450 -475 
Q 4150 -450 3512 -312 
Q 2875 -175 2487 162 
Q 2100 500 1775 1050 
Q 1550 475 1275 112 
Q 1000 -250 450 -625 
L 400 -550 
Q 875 -100 1125 375 
Q 1375 850 1462 1312 
Q 1550 1775 1575 2250 
L 2175 1950 
L 1975 1775 
z
M 2725 5150 
L 2775 5200 
Q 3250 4950 3375 4812 
Q 3500 4675 3500 4550 
Q 3500 4425 3387 4300 
Q 3275 4175 3250 4175 
Q 3150 4175 3125 4400 
Q 3050 4725 2725 5150 
z
M 4900 3325 
L 5225 3950 
L 1250 3950 
Q 1275 3375 1112 3287 
Q 950 3200 875 3200 
Q 775 3200 687 3262 
Q 600 3325 600 3350 
Q 600 3450 800 3625 
Q 1050 3850 1150 4425 
L 1250 4425 
L 1250 4100 
L 5175 4100 
L 5450 4375 
L 5875 3875 
Q 5525 3875 4975 3275 
L 4900 3325 
z
" transform="scale(0.015625)"/>
      <path id="SimSun-31ae" d="M 1550 5200 
L 2050 4850 
Q 1825 4750 1575 4300 
L 2650 4300 
L 2950 4600 
L 3350 4150 
L 1900 4150 
Q 2250 3925 2362 3775 
Q 2475 3625 2475 3475 
Q 2475 3400 2437 3300 
Q 2400 3200 2262 3125 
Q 2125 3050 2100 3225 
Q 2075 3400 2000 3662 
Q 1925 3925 1750 4150 
L 1500 4150 
Q 1200 3750 950 3450 
Q 700 3150 350 2825 
L 275 2875 
Q 625 3300 1000 3937 
Q 1375 4575 1550 5200 
z
M 4000 5225 
L 4500 4900 
Q 4275 4800 4000 4300 
L 5225 4300 
L 5550 4625 
L 6000 4150 
L 4575 4150 
Q 4900 3950 5062 3775 
Q 5225 3600 5212 3450 
Q 5200 3300 5087 3200 
Q 4975 3100 4925 3100 
Q 4875 3100 4850 3225 
Q 4800 3425 4725 3637 
Q 4650 3850 4450 4150 
L 3950 4150 
Q 3675 3775 3375 3450 
L 3300 3500 
Q 3775 4300 4000 5225 
z
M 3225 3100 
Q 2475 2350 1800 1962 
Q 1125 1575 250 1325 
L 250 1425 
Q 1250 1825 1925 2350 
Q 2600 2875 3000 3650 
L 3500 3300 
L 3300 3200 
Q 3600 2875 4112 2562 
Q 4625 2250 5150 2112 
Q 5675 1975 6125 1950 
L 6125 1850 
Q 5725 1775 5625 1500 
Q 5225 1625 4712 1887 
Q 4200 2150 3850 2462 
Q 3500 2775 3225 3100 
z
M 1600 1425 
Q 2075 1000 2237 775 
Q 2400 550 2375 375 
Q 2350 200 2237 87 
Q 2125 -25 2062 0 
Q 2000 25 1950 325 
Q 1875 600 1775 862 
Q 1675 1125 1525 1375 
L 1600 1425 
z
M 2750 1575 
Q 3250 1125 3350 900 
Q 3450 675 3450 550 
Q 3450 450 3400 325 
Q 3350 200 3275 162 
Q 3200 125 3175 125 
Q 3100 125 3062 287 
Q 3025 450 2975 750 
Q 2925 1050 2675 1525 
L 2750 1575 
z
M 4400 1600 
L 4950 1200 
L 4700 1125 
Q 4275 475 3850 -150 
L 5100 -150 
L 5500 225 
L 5975 -300 
L 1325 -300 
Q 975 -300 700 -375 
L 475 -150 
L 3700 -150 
Q 4125 650 4400 1600 
z
M 1825 1950 
L 3725 1950 
L 4025 2225 
L 4425 1800 
L 2525 1800 
Q 2325 1800 2050 1725 
L 1825 1950 
z
" transform="scale(0.015625)"/>
      <path id="SimSun-a38" d="M 3575 4875 
L 3350 4750 
Q 3650 4225 4312 3662 
Q 4975 3100 6125 2825 
L 6125 2750 
Q 5750 2675 5600 2400 
Q 4500 3000 3962 3612 
Q 3425 4225 3250 4625 
Q 2575 3600 1887 3075 
Q 1200 2550 300 2225 
L 275 2325 
Q 1250 2825 1937 3500 
Q 2625 4175 3050 5225 
L 3575 4875 
z
M 1525 2700 
L 4025 2700 
L 4350 3025 
L 4825 2550 
L 2300 2550 
Q 2025 2550 1750 2475 
L 1525 2700 
z
M 1975 1500 
L 1975 100 
L 4375 100 
L 4375 1500 
L 1975 1500 
z
M 4725 1375 
Q 4725 250 4750 -325 
L 4375 -475 
L 4375 -50 
L 1975 -50 
L 1975 -375 
L 1600 -525 
Q 1625 100 1625 675 
Q 1625 1250 1600 1850 
L 1975 1650 
L 4325 1650 
L 4575 1900 
L 4925 1550 
L 4725 1375 
z
" transform="scale(0.015625)"/>
      <path id="SimSun-1840" d="M 4325 5075 
Q 4850 4775 5025 4612 
Q 5200 4450 5162 4287 
Q 5125 4125 5025 4062 
Q 4925 4000 4900 4000 
Q 4800 4000 4750 4200 
Q 4675 4475 4250 5000 
L 4325 5075 
z
M 5625 100 
L 5925 1175 
L 6025 1150 
Q 5925 375 5925 125 
Q 5925 -125 6050 -350 
Q 6100 -450 6000 -450 
Q 5825 -450 5350 -275 
Q 4875 -100 4250 675 
Q 3475 -125 2550 -525 
L 2525 -425 
Q 3525 225 4050 950 
Q 3550 1875 3400 3650 
L 1425 3650 
L 1400 2450 
L 2550 2450 
L 2775 2700 
L 3150 2350 
L 2925 2175 
Q 2850 675 2725 437 
Q 2600 200 2250 50 
Q 2175 400 1575 625 
L 1575 725 
Q 2050 650 2237 625 
Q 2425 600 2475 837 
Q 2525 1075 2575 2300 
L 1400 2300 
Q 1325 225 350 -600 
L 300 -525 
Q 950 400 987 1462 
Q 1025 2525 1025 3075 
Q 1025 3625 1000 4025 
L 1450 3800 
L 3375 3800 
Q 3300 4625 3250 5150 
L 3900 4900 
L 3725 4700 
Q 3725 4300 3775 3800 
L 5150 3800 
L 5500 4150 
L 6000 3650 
L 3775 3650 
Q 3925 2000 4300 1325 
Q 4500 1625 4700 2100 
Q 4900 2575 5100 3175 
L 5625 2775 
L 5400 2650 
Q 4975 1625 4525 975 
Q 5050 350 5625 100 
z
" transform="scale(0.015625)"/>
      <path id="SimSun-1e78" d="M 2675 5250 
Q 3200 5075 3300 4962 
Q 3400 4850 3400 4750 
Q 3400 4625 3337 4525 
Q 3275 4425 3225 4425 
Q 3150 4425 3075 4625 
Q 2925 4925 2650 5175 
L 2675 5250 
z
M 4900 3725 
L 5125 4225 
L 2850 4225 
L 3150 4000 
L 2950 3900 
L 2625 3475 
L 4950 3475 
L 5300 3825 
L 5800 3325 
L 4425 3325 
Q 4075 2850 3750 2575 
Q 4475 2425 4812 2275 
Q 5150 2125 5137 1925 
Q 5125 1725 5050 1725 
Q 4975 1725 4900 1775 
Q 4650 1900 4337 2062 
Q 4025 2225 3550 2375 
Q 2700 1800 850 1675 
L 850 1775 
Q 2400 1975 3225 2475 
Q 2700 2600 1725 2725 
Q 1975 3025 2200 3325 
L 1025 3325 
L 800 3275 
L 600 3475 
L 2275 3475 
Q 2625 4025 2700 4225 
L 1250 4225 
Q 1250 3850 1112 3737 
Q 975 3625 875 3625 
Q 775 3625 687 3675 
Q 600 3725 600 3750 
Q 600 3850 775 3950 
Q 1025 4125 1150 4625 
L 1250 4625 
L 1250 4375 
L 5100 4375 
L 5325 4625 
L 5750 4225 
Q 5600 4225 5412 4087 
Q 5225 3950 4975 3675 
L 4900 3725 
z
M 2550 3325 
Q 2375 3100 2150 2800 
Q 2700 2750 3425 2650 
Q 3725 2925 4000 3325 
L 2550 3325 
z
M 3025 -625 
Q 3050 225 3050 1125 
Q 2075 -50 325 -550 
L 300 -450 
Q 1800 125 2650 1200 
L 925 1200 
L 650 1150 
L 450 1350 
L 3050 1350 
Q 3050 1625 3025 2000 
L 3625 1750 
L 3400 1600 
L 3400 1350 
L 5125 1350 
L 5500 1725 
L 6025 1200 
L 3600 1200 
Q 4500 125 6075 25 
L 6075 -75 
Q 5700 -150 5600 -425 
Q 4125 50 3475 1200 
L 3400 1200 
Q 3400 50 3425 -425 
L 3025 -625 
z
" transform="scale(0.015625)"/>
      <path id="SimSun-5bb" d="M 3900 3000 
Q 3625 1850 3300 1250 
Q 2975 650 2550 250 
Q 2125 -150 1625 -400 
L 1575 -325 
Q 2175 100 2525 575 
Q 2875 1050 3112 1625 
Q 3350 2200 3550 3075 
L 2700 3075 
Q 2550 2725 2400 2450 
Q 2775 2200 2875 2050 
Q 2975 1900 2975 1825 
Q 2975 1700 2887 1587 
Q 2800 1475 2775 1475 
Q 2700 1475 2650 1725 
Q 2575 2050 2350 2350 
Q 2125 1950 1750 1550 
L 1675 1625 
Q 2100 2200 2362 3012 
Q 2625 3825 2675 4250 
L 2325 4250 
L 2050 4200 
L 1825 4400 
L 3600 4400 
L 3875 4675 
L 4300 4250 
L 3075 4250 
Q 3000 3975 2750 3225 
L 3525 3225 
L 3725 3475 
L 4150 3150 
L 3900 3000 
z
M 4725 2000 
Q 4725 1750 4750 975 
L 4375 800 
Q 4400 1625 4400 1900 
L 4400 3300 
Q 4400 3725 4375 4075 
L 4925 3825 
L 4725 3625 
L 4725 2000 
z
M 5350 3950 
Q 5350 4375 5325 5125 
L 5875 4850 
L 5675 4700 
L 5675 -25 
Q 5700 -425 5175 -600 
Q 5150 -275 4400 -125 
L 4425 0 
Q 5050 -100 5200 -62 
Q 5350 -25 5350 225 
L 5350 3950 
z
M 1100 -600 
Q 1125 225 1125 575 
L 1125 3150 
Q 625 2375 325 2050 
L 250 2100 
Q 800 3025 1075 3800 
Q 1350 4575 1475 5200 
L 2025 4900 
L 1825 4775 
Q 1425 3825 1300 3525 
L 1650 3375 
L 1450 3200 
L 1450 525 
Q 1450 100 1475 -425 
L 1100 -600 
z
" transform="scale(0.015625)"/>
      <path id="SimSun-2d6" d="M 1550 675 
Q 1700 575 1687 337 
Q 1675 100 1500 0 
Q 1325 -100 1250 -100 
Q 1175 -100 1000 0 
Q 825 100 812 350 
Q 800 600 962 687 
Q 1125 775 1250 775 
Q 1400 775 1550 675 
z
M 1550 2187 
Q 1725 2100 1725 1837 
Q 1725 1575 1525 1487 
Q 1325 1400 1250 1400 
Q 1125 1400 962 1512 
Q 800 1625 812 1862 
Q 825 2100 1000 2187 
Q 1175 2275 1275 2275 
Q 1375 2275 1550 2187 
z
" transform="scale(0.015625)"/>
      <path id="SimSun-a1a" d="M 2450 1850 
L 2975 1450 
L 2725 1350 
Q 1475 -150 675 -550 
L 625 -475 
Q 1325 125 1775 737 
Q 2225 1350 2450 1850 
z
M 3725 1700 
L 3775 1775 
Q 4475 1325 4975 887 
Q 5475 450 5475 100 
Q 5475 -25 5400 -225 
Q 5325 -425 5275 -425 
Q 5200 -425 5125 -225 
Q 4950 150 4625 625 
Q 4300 1100 3725 1700 
z
M 1925 4650 
L 1925 2375 
L 4600 2375 
L 4600 4650 
L 1925 4650 
z
M 4950 2850 
Q 4950 2475 4975 1975 
L 4600 1825 
L 4600 2225 
L 1925 2225 
L 1925 1850 
L 1525 1700 
Q 1575 2450 1575 3400 
Q 1575 4350 1550 5050 
L 1950 4800 
L 4550 4800 
L 4725 5075 
L 5150 4775 
L 4950 4575 
L 4950 2850 
z
" transform="scale(0.015625)"/>
      <path id="SimSun-8d0" d="M 1500 3800 
Q 1500 4700 1475 5250 
L 2075 4975 
L 1850 4800 
L 1850 3800 
L 2750 3800 
L 2950 4050 
L 3325 3725 
L 3100 3550 
Q 3025 650 2825 200 
Q 2625 -250 2150 -350 
Q 2175 -25 1450 250 
L 1475 375 
Q 2050 225 2225 225 
Q 2325 225 2437 287 
Q 2550 350 2637 862 
Q 2725 1375 2775 3650 
L 1850 3650 
Q 1825 2825 1762 2212 
Q 1700 1600 1400 900 
Q 1100 200 325 -525 
L 250 -450 
Q 825 225 1087 875 
Q 1350 1525 1425 2200 
Q 1500 2875 1500 3650 
L 825 3650 
L 525 3600 
L 325 3800 
L 1500 3800 
z
M 5725 3700 
L 5725 975 
Q 5725 375 5750 -175 
L 5400 -325 
L 5400 350 
L 4075 350 
L 4075 -300 
L 3725 -475 
Q 3750 300 3750 1850 
Q 3750 3400 3725 4175 
L 4100 3925 
L 5350 3925 
L 5575 4150 
L 5900 3825 
L 5725 3700 
z
M 4075 3775 
L 4075 500 
L 5400 500 
L 5400 3775 
L 4075 3775 
z
" transform="scale(0.015625)"/>
      <path id="SimSun-1415" d="M 675 4350 
L 4825 4350 
L 5200 4725 
L 5725 4200 
L 3375 4200 
L 3375 125 
L 5050 125 
L 5475 550 
L 6050 -25 
L 1150 -25 
Q 825 -25 550 -100 
L 325 125 
L 3000 125 
L 3000 4200 
L 1500 4200 
Q 1175 4200 900 4125 
L 675 4350 
z
" transform="scale(0.015625)"/>
      <path id="SimSun-7a7" d="M 2675 550 
L 2425 500 
Q 1375 -250 400 -600 
L 375 -500 
Q 1125 -75 1587 300 
Q 2050 675 2250 975 
L 2675 550 
z
M 3925 825 
Q 4750 525 5200 262 
Q 5650 0 5650 -275 
Q 5650 -350 5612 -475 
Q 5575 -600 5550 -600 
Q 5450 -600 5175 -250 
Q 4775 225 3900 725 
L 3925 825 
z
M 2125 4725 
L 2125 4025 
L 4375 4025 
L 4375 4725 
L 2125 4725 
z
M 2125 3875 
L 2125 3100 
L 4375 3100 
L 4375 3875 
L 2125 3875 
z
M 2125 2950 
L 2125 2150 
L 4375 2150 
L 4375 2950 
L 2125 2950 
z
M 2125 2000 
L 2125 1225 
L 4375 1225 
L 4375 2000 
L 2125 2000 
z
M 1800 3950 
Q 1800 4325 1775 5125 
L 2125 4875 
L 4350 4875 
L 4550 5100 
L 4925 4800 
L 4700 4625 
L 4700 1225 
L 5100 1225 
L 5500 1625 
L 6050 1075 
L 1200 1075 
Q 875 1075 600 1000 
L 375 1225 
L 1800 1225 
L 1800 3950 
z
" transform="scale(0.015625)"/>
      <path id="SimSun-2ffd" d="M 3400 3475 
L 3400 1900 
L 4200 1900 
L 4200 3475 
L 3400 3475 
z
M 4525 3475 
L 4525 1900 
L 5400 1900 
L 5400 3475 
L 4525 3475 
z
M 3050 1275 
Q 3075 1800 3075 2625 
Q 3075 3450 3050 3825 
L 3400 3625 
L 4200 3625 
Q 4200 4825 4175 5225 
L 4750 4950 
L 4525 4775 
L 4525 3625 
L 5350 3625 
L 5525 3900 
L 5925 3600 
L 5725 3400 
Q 5725 2375 5750 1525 
L 5400 1400 
L 5400 1750 
L 4525 1750 
Q 4525 -100 4550 -450 
L 4175 -600 
Q 4200 325 4200 1750 
L 3400 1750 
L 3400 1425 
L 3050 1275 
z
M 1550 -625 
Q 1575 525 1575 2275 
Q 1075 1275 300 625 
L 250 700 
Q 750 1325 1087 1987 
Q 1425 2650 1575 3225 
L 1125 3225 
Q 800 3225 525 3150 
L 300 3375 
L 1575 3375 
L 1575 4450 
Q 1050 4375 475 4325 
L 475 4425 
Q 975 4500 1575 4662 
Q 2175 4825 2475 5050 
L 2850 4625 
Q 2375 4575 1900 4500 
L 1900 3375 
L 2200 3375 
L 2500 3675 
L 2925 3225 
L 1900 3225 
L 1900 2650 
Q 2500 2450 2637 2325 
Q 2775 2200 2775 2050 
Q 2775 1950 2712 1800 
Q 2650 1650 2600 1650 
Q 2550 1650 2450 1875 
Q 2275 2200 1900 2525 
Q 1900 -50 1925 -450 
L 1550 -625 
z
" transform="scale(0.015625)"/>
      <path id="SimSun-32ab" d="M 1375 4925 
L 1425 5000 
Q 1975 4775 2200 4612 
Q 2425 4450 2412 4287 
Q 2400 4125 2325 4012 
Q 2250 3900 2200 3900 
Q 2125 3900 2025 4150 
Q 1850 4500 1375 4925 
z
M 3075 3750 
L 3075 4825 
Q 3075 5000 3050 5225 
L 3700 4975 
L 3425 4775 
L 3425 3750 
L 3900 3750 
Q 4475 4525 4750 5075 
L 5250 4650 
L 4975 4575 
Q 4700 4375 4050 3750 
L 5275 3750 
L 5625 4075 
L 6075 3600 
L 3425 3600 
L 3425 3450 
Q 5000 3025 5300 2850 
Q 5600 2675 5625 2550 
Q 5650 2425 5650 2375 
Q 5650 2250 5612 2175 
Q 5575 2100 5550 2100 
Q 5425 2100 5150 2400 
Q 4775 2775 3425 3350 
Q 3425 2575 3450 2400 
L 3050 2250 
Q 3075 2575 3075 3575 
Q 2625 3000 2037 2575 
Q 1450 2150 400 1850 
L 375 1925 
Q 1300 2325 1812 2725 
Q 2325 3125 2675 3600 
L 1250 3600 
Q 925 3600 650 3525 
L 425 3750 
L 3075 3750 
z
M 3250 1775 
Q 3200 1625 3150 1500 
L 5300 1500 
L 5650 1850 
L 6100 1350 
L 3500 1350 
Q 3925 750 4550 375 
Q 5175 0 6125 -100 
L 6125 -200 
Q 5650 -225 5525 -550 
Q 4700 -225 4137 325 
Q 3575 875 3375 1350 
L 3125 1350 
Q 2825 375 2175 -37 
Q 1525 -450 300 -650 
L 275 -575 
Q 1175 -350 1825 62 
Q 2475 475 2750 1350 
L 1075 1350 
Q 750 1350 475 1275 
L 250 1500 
L 2775 1500 
Q 2825 1850 2850 2225 
L 3475 1925 
L 3250 1775 
z
" transform="scale(0.015625)"/>
     </defs>
     <use xlink:href="#SimSun-d2a"/>
     <use xlink:href="#SimSun-11ca" transform="translate(100 0)"/>
     <use xlink:href="#SimSun-1e37" transform="translate(200 0)"/>
     <use xlink:href="#SimSun-31ae" transform="translate(300 0)"/>
     <use xlink:href="#SimSun-a38" transform="translate(400 0)"/>
     <use xlink:href="#SimSun-1840" transform="translate(500 0)"/>
     <use xlink:href="#SimSun-1e78" transform="translate(600 0)"/>
     <use xlink:href="#SimSun-5bb" transform="translate(700 0)"/>
     <use xlink:href="#SimSun-2d6" transform="translate(800 0)"/>
     <use xlink:href="#SimSun-a1a" transform="translate(900 0)"/>
     <use xlink:href="#SimSun-ece" transform="translate(1000 0)"/>
     <use xlink:href="#SimSun-8d0" transform="translate(1100 0)"/>
     <use xlink:href="#SimSun-1415" transform="translate(1200 0)"/>
     <use xlink:href="#SimSun-7a7" transform="translate(1300 0)"/>
     <use xlink:href="#SimSun-2ffd" transform="translate(1400 0)"/>
     <use xlink:href="#SimSun-32ab" transform="translate(1500 0)"/>
    </g>
   </g>
  </g>
 </g>
 <defs>
  <clipPath id="pa30d884ba3">
   <rect x="40.554492" y="34.739062" width="504.665977" height="225.450352"/>
  </clipPath>
 </defs>
</svg>
