<?xml version="1.0" encoding="utf-8" standalone="no"?>
<!DOCTYPE svg PUBLIC "-//W3C//DTD SVG 1.1//EN"
  "http://www.w3.org/Graphics/SVG/1.1/DTD/svg11.dtd">
<svg xmlns:xlink="http://www.w3.org/1999/xlink" width="660.206719pt" height="307.79125pt" viewBox="0 0 660.206719 307.79125" xmlns="http://www.w3.org/2000/svg" version="1.1">
 <metadata>
  <rdf:RDF xmlns:dc="http://purl.org/dc/elements/1.1/" xmlns:cc="http://creativecommons.org/ns#" xmlns:rdf="http://www.w3.org/1999/02/22-rdf-syntax-ns#">
   <cc:Work>
    <dc:type rdf:resource="http://purl.org/dc/dcmitype/StillImage"/>
    <dc:date>2026-09-27T07:23:02.722074</dc:date>
    <dc:format>image/svg+xml</dc:format>
    <dc:creator>
     <cc:Agent>
      <dc:title>Matplotlib v3.11.2, https://matplotlib.org/</dc:title>
     </cc:Agent>
    </dc:creator>
   </cc:Work>
  </rdf:RDF>
 </metadata>
 <defs>
  <style type="text/css">*{stroke-linejoin: round; stroke-linecap: butt}</style>
 </defs>
 <g id="figure_1">
  <g id="patch_1">
   <path d="M 0 307.79125 
L 660.206719 307.79125 
L 660.206719 0 
L 0 0 
z
" style="fill: #ffffff"/>
  </g>
  <g id="axes_1">
   <g id="patch_2">
    <path d="M 43.154316 281.871523 
L 653.006719 281.871523 
L 653.006719 34.95125 
L 43.154316 34.95125 
z
" style="fill: #ffffff"/>
   </g>
   <g id="patch_3">
    <path d="M 70.87488 281.871523 
L 105.767897 281.871523 
L 105.767897 183.922623 
L 70.87488 183.922623 
z
" clip-path="url(#p75f35a11c7)" style="fill: #176b77"/>
   </g>
   <g id="patch_4">
    <path d="M 167.799928 281.871523 
L 202.692945 281.871523 
L 202.692945 72.617054 
L 167.799928 72.617054 
z
" clip-path="url(#p75f35a11c7)" style="fill: #176b77"/>
   </g>
   <g id="patch_5">
    <path d="M 264.724976 281.871523 
L 299.617994 281.871523 
L 299.617994 272.596059 
L 264.724976 272.596059 
z
" clip-path="url(#p75f35a11c7)" style="fill: #176b77"/>
   </g>
   <g id="patch_6">
    <path d="M 361.650024 281.871523 
L 396.543042 281.871523 
L 396.543042 262.578558 
L 361.650024 262.578558 
z
" clip-path="url(#p75f35a11c7)" style="fill: #176b77"/>
   </g>
   <g id="patch_7">
    <path d="M 458.575072 281.871523 
L 493.46809 281.871523 
L 493.46809 277.419301 
L 458.575072 277.419301 
z
" clip-path="url(#p75f35a11c7)" style="fill: #176b77"/>
   </g>
   <g id="patch_8">
    <path d="M 555.50012 281.871523 
L 590.393138 281.871523 
L 590.393138 247.366797 
L 555.50012 247.366797 
z
" clip-path="url(#p75f35a11c7)" style="fill: #176b77"/>
   </g>
   <g id="patch_9">
    <path d="M 105.767897 281.871523 
L 140.660915 281.871523 
L 140.660915 249.517366 
L 105.767897 249.517366 
z
" clip-path="url(#p75f35a11c7)" style="fill: #bc632f"/>
   </g>
   <g id="patch_10">
    <path d="M 202.692945 281.871523 
L 237.585963 281.871523 
L 237.585963 94.024252 
L 202.692945 94.024252 
z
" clip-path="url(#p75f35a11c7)" style="fill: #bc632f"/>
   </g>
   <g id="patch_11">
    <path d="M 299.617994 281.871523 
L 334.511011 281.871523 
L 334.511011 259.658221 
L 299.617994 259.658221 
z
" clip-path="url(#p75f35a11c7)" style="fill: #bc632f"/>
   </g>
   <g id="patch_12">
    <path d="M 396.543042 281.871523 
L 431.436059 281.871523 
L 431.436059 194.467009 
L 396.543042 194.467009 
z
" clip-path="url(#p75f35a11c7)" style="fill: #bc632f"/>
   </g>
   <g id="patch_13">
    <path d="M 493.46809 281.871523 
L 528.361107 281.871523 
L 528.361107 264.004302 
L 493.46809 264.004302 
z
" clip-path="url(#p75f35a11c7)" style="fill: #bc632f"/>
   </g>
   <g id="patch_14">
    <path d="M 590.393138 281.871523 
L 625.286155 281.871523 
L 625.286155 254.829243 
L 590.393138 254.829243 
z
" clip-path="url(#p75f35a11c7)" style="fill: #bc632f"/>
   </g>
   <g id="matplotlib.axis_1">
    <g id="xtick_1">
     <g id="line2d_1">
      <defs>
       <path id="m29104daa94" d="M 0 0 
L 0 3.5 
" style="stroke: #273949; stroke-width: 0.8"/>
      </defs>
      <g>
       <use xlink:href="#m29104daa94" x="105.767897" y="281.871523" style="fill: #273949; stroke: #273949; stroke-width: 0.8"/>
      </g>
     </g>
     <g id="text_1">
      <!-- L1 -->
      <g style="fill: #273949" transform="translate(99.720476 297.803652) scale(0.11 -0.11)">
       <defs>
        <path id="MicrosoftYaHei-32" d="M 3178 0 
L 625 0 
L 625 4841 
L 1250 4841 
L 1250 553 
L 3178 553 
L 3178 0 
z
" transform="scale(0.015625)"/>
        <path id="MicrosoftYaHei-17" d="M 1781 0 
L 1781 4141 
Q 1638 3997 1295 3819 
Q 953 3641 663 3569 
L 663 4169 
Q 1047 4275 1484 4508 
Q 1922 4741 2156 4947 
L 2388 4947 
L 2388 0 
L 1781 0 
z
" transform="scale(0.015625)"/>
       </defs>
       <use xlink:href="#MicrosoftYaHei-32"/>
       <use xlink:href="#MicrosoftYaHei-17" transform="translate(51.3125 0)"/>
      </g>
     </g>
    </g>
    <g id="xtick_2">
     <g id="line2d_2">
      <g>
       <use xlink:href="#m29104daa94" x="202.692945" y="281.871523" style="fill: #273949; stroke: #273949; stroke-width: 0.8"/>
      </g>
     </g>
     <g id="text_2">
      <!-- L2 -->
      <g style="fill: #273949" transform="translate(196.645524 297.803652) scale(0.11 -0.11)">
       <defs>
        <path id="MicrosoftYaHei-18" d="M 2666 3572 
Q 2666 3963 2419 4186 
Q 2172 4409 1747 4409 
Q 1447 4409 1140 4256 
Q 834 4103 569 3819 
L 569 4413 
Q 806 4659 1107 4790 
Q 1409 4922 1816 4922 
Q 2472 4922 2872 4570 
Q 3272 4219 3272 3619 
Q 3272 3084 3026 2693 
Q 2781 2303 2188 1894 
Q 1581 1475 1376 1294 
Q 1172 1113 1090 947 
Q 1009 781 1009 544 
L 3416 544 
L 3416 0 
L 372 0 
L 372 241 
Q 372 659 486 951 
Q 600 1244 862 1520 
Q 1125 1797 1681 2184 
Q 2250 2584 2458 2886 
Q 2666 3188 2666 3572 
z
" transform="scale(0.015625)"/>
       </defs>
       <use xlink:href="#MicrosoftYaHei-32"/>
       <use xlink:href="#MicrosoftYaHei-18" transform="translate(51.3125 0)"/>
      </g>
     </g>
    </g>
    <g id="xtick_3">
     <g id="line2d_3">
      <g>
       <use xlink:href="#m29104daa94" x="299.617994" y="281.871523" style="fill: #273949; stroke: #273949; stroke-width: 0.8"/>
      </g>
     </g>
     <g id="text_3">
      <!-- L3 -->
      <g style="fill: #273949" transform="translate(293.570572 297.803652) scale(0.11 -0.11)">
       <defs>
        <path id="MicrosoftYaHei-19" d="M 447 809 
Q 944 425 1569 425 
Q 2069 425 2361 670 
Q 2653 916 2653 1328 
Q 2653 2247 1338 2247 
L 934 2247 
L 934 2753 
L 1319 2753 
Q 2484 2753 2484 3616 
Q 2484 4413 1594 4413 
Q 1084 4413 634 4069 
L 634 4647 
Q 1109 4922 1744 4922 
Q 2363 4922 2738 4598 
Q 3113 4275 3113 3759 
Q 3113 2809 2144 2538 
L 2144 2525 
Q 2669 2469 2973 2155 
Q 3278 1841 3278 1372 
Q 3278 719 2808 319 
Q 2338 -81 1556 -81 
Q 869 -81 447 175 
L 447 809 
z
" transform="scale(0.015625)"/>
       </defs>
       <use xlink:href="#MicrosoftYaHei-32"/>
       <use xlink:href="#MicrosoftYaHei-19" transform="translate(51.3125 0)"/>
      </g>
     </g>
    </g>
    <g id="xtick_4">
     <g id="line2d_4">
      <g>
       <use xlink:href="#m29104daa94" x="396.543042" y="281.871523" style="fill: #273949; stroke: #273949; stroke-width: 0.8"/>
      </g>
     </g>
     <g id="text_4">
      <!-- L4 -->
      <g style="fill: #273949" transform="translate(390.49562 297.803652) scale(0.11 -0.11)">
       <defs>
        <path id="MicrosoftYaHei-1a" d="M 2906 4841 
L 2906 1644 
L 3631 1644 
L 3631 1138 
L 2906 1138 
L 2906 0 
L 2313 0 
L 2313 1138 
L 53 1138 
L 53 1616 
Q 656 2294 1265 3178 
Q 1875 4063 2272 4841 
L 2906 4841 
z
M 741 1644 
L 2313 1644 
L 2313 3950 
Q 1988 3366 1616 2817 
Q 1244 2269 741 1644 
z
" transform="scale(0.015625)"/>
       </defs>
       <use xlink:href="#MicrosoftYaHei-32"/>
       <use xlink:href="#MicrosoftYaHei-1a" transform="translate(51.3125 0)"/>
      </g>
     </g>
    </g>
    <g id="xtick_5">
     <g id="line2d_5">
      <g>
       <use xlink:href="#m29104daa94" x="493.46809" y="281.871523" style="fill: #273949; stroke: #273949; stroke-width: 0.8"/>
      </g>
     </g>
     <g id="text_5">
      <!-- L5 -->
      <g style="fill: #273949" transform="translate(487.420668 297.803652) scale(0.11 -0.11)">
       <defs>
        <path id="MicrosoftYaHei-1b" d="M 3294 1494 
Q 3294 784 2823 350 
Q 2353 -84 1559 -84 
Q 878 -84 544 119 
L 544 744 
Q 1034 425 1544 425 
Q 2050 425 2361 704 
Q 2672 984 2672 1447 
Q 2672 1909 2348 2167 
Q 2025 2425 1434 2425 
Q 978 2425 613 2384 
L 791 4841 
L 3053 4841 
L 3053 4303 
L 1306 4303 
L 1206 2931 
L 1647 2950 
Q 2416 2950 2855 2567 
Q 3294 2184 3294 1494 
z
" transform="scale(0.015625)"/>
       </defs>
       <use xlink:href="#MicrosoftYaHei-32"/>
       <use xlink:href="#MicrosoftYaHei-1b" transform="translate(51.3125 0)"/>
      </g>
     </g>
    </g>
    <g id="xtick_6">
     <g id="line2d_6">
      <g>
       <use xlink:href="#m29104daa94" x="590.393138" y="281.871523" style="fill: #273949; stroke: #273949; stroke-width: 0.8"/>
      </g>
     </g>
     <g id="text_6">
      <!-- L6 -->
      <g style="fill: #273949" transform="translate(584.345716 297.803652) scale(0.11 -0.11)">
       <defs>
        <path id="MicrosoftYaHei-1c" d="M 3181 4219 
Q 2803 4413 2391 4413 
Q 1763 4413 1381 3866 
Q 1000 3319 994 2372 
L 1009 2372 
Q 1353 3038 2106 3038 
Q 2734 3038 3109 2628 
Q 3484 2219 3484 1541 
Q 3484 831 3051 375 
Q 2619 -81 1947 -81 
Q 1209 -81 789 495 
Q 369 1072 369 2131 
Q 369 3413 920 4167 
Q 1472 4922 2372 4922 
Q 2888 4922 3181 4781 
L 3181 4219 
z
M 1031 1584 
Q 1031 1106 1286 765 
Q 1541 425 1963 425 
Q 2363 425 2613 719 
Q 2863 1013 2863 1475 
Q 2863 1975 2627 2253 
Q 2391 2531 1956 2531 
Q 1544 2531 1287 2250 
Q 1031 1969 1031 1584 
z
" transform="scale(0.015625)"/>
       </defs>
       <use xlink:href="#MicrosoftYaHei-32"/>
       <use xlink:href="#MicrosoftYaHei-1c" transform="translate(51.3125 0)"/>
      </g>
     </g>
    </g>
   </g>
   <g id="matplotlib.axis_2">
    <g id="ytick_1">
     <g id="line2d_7">
      <defs>
       <path id="mde128b6afe" d="M 0 0 
L -3.5 0 
" style="stroke: #273949; stroke-width: 0.8"/>
      </defs>
      <g>
       <use xlink:href="#mde128b6afe" x="43.154316" y="281.871523" style="fill: #273949; stroke: #273949; stroke-width: 0.8"/>
      </g>
     </g>
     <g id="text_7">
      <!-- 0 -->
      <g style="fill: #273949" transform="translate(29.703848 286.337588) scale(0.11 -0.11)">
       <defs>
        <path id="MicrosoftYaHei-16" d="M 284 2325 
Q 284 3606 709 4264 
Q 1134 4922 1941 4922 
Q 3478 4922 3478 2441 
Q 3478 1216 3045 567 
Q 2613 -81 1831 -81 
Q 1094 -81 689 534 
Q 284 1150 284 2325 
z
M 909 2353 
Q 909 425 1888 425 
Q 2850 425 2850 2384 
Q 2850 4413 1906 4413 
Q 909 4413 909 2353 
z
" transform="scale(0.015625)"/>
       </defs>
       <use xlink:href="#MicrosoftYaHei-16"/>
      </g>
     </g>
    </g>
    <g id="ytick_2">
     <g id="line2d_8">
      <g>
       <use xlink:href="#mde128b6afe" x="43.154316" y="244.398649" style="fill: #273949; stroke: #273949; stroke-width: 0.8"/>
      </g>
     </g>
     <g id="text_8">
      <!-- 10 -->
      <g style="fill: #273949" transform="translate(23.253379 248.864713) scale(0.11 -0.11)">
       <use xlink:href="#MicrosoftYaHei-17"/>
       <use xlink:href="#MicrosoftYaHei-16" transform="translate(58.640625 0)"/>
      </g>
     </g>
    </g>
    <g id="ytick_3">
     <g id="line2d_9">
      <g>
       <use xlink:href="#mde128b6afe" x="43.154316" y="206.925774" style="fill: #273949; stroke: #273949; stroke-width: 0.8"/>
      </g>
     </g>
     <g id="text_9">
      <!-- 20 -->
      <g style="fill: #273949" transform="translate(23.253379 211.391838) scale(0.11 -0.11)">
       <use xlink:href="#MicrosoftYaHei-18"/>
       <use xlink:href="#MicrosoftYaHei-16" transform="translate(58.640625 0)"/>
      </g>
     </g>
    </g>
    <g id="ytick_4">
     <g id="line2d_10">
      <g>
       <use xlink:href="#mde128b6afe" x="43.154316" y="169.452899" style="fill: #273949; stroke: #273949; stroke-width: 0.8"/>
      </g>
     </g>
     <g id="text_10">
      <!-- 30 -->
      <g style="fill: #273949" transform="translate(23.253379 173.918964) scale(0.11 -0.11)">
       <use xlink:href="#MicrosoftYaHei-19"/>
       <use xlink:href="#MicrosoftYaHei-16" transform="translate(58.640625 0)"/>
      </g>
     </g>
    </g>
    <g id="ytick_5">
     <g id="line2d_11">
      <g>
       <use xlink:href="#mde128b6afe" x="43.154316" y="131.980024" style="fill: #273949; stroke: #273949; stroke-width: 0.8"/>
      </g>
     </g>
     <g id="text_11">
      <!-- 40 -->
      <g style="fill: #273949" transform="translate(23.253379 136.446089) scale(0.11 -0.11)">
       <use xlink:href="#MicrosoftYaHei-1a"/>
       <use xlink:href="#MicrosoftYaHei-16" transform="translate(58.640625 0)"/>
      </g>
     </g>
    </g>
    <g id="ytick_6">
     <g id="line2d_12">
      <g>
       <use xlink:href="#mde128b6afe" x="43.154316" y="94.50715" style="fill: #273949; stroke: #273949; stroke-width: 0.8"/>
      </g>
     </g>
     <g id="text_12">
      <!-- 50 -->
      <g style="fill: #273949" transform="translate(23.253379 98.973214) scale(0.11 -0.11)">
       <use xlink:href="#MicrosoftYaHei-1b"/>
       <use xlink:href="#MicrosoftYaHei-16" transform="translate(58.640625 0)"/>
      </g>
     </g>
    </g>
    <g id="ytick_7">
     <g id="line2d_13">
      <g>
       <use xlink:href="#mde128b6afe" x="43.154316" y="57.034275" style="fill: #273949; stroke: #273949; stroke-width: 0.8"/>
      </g>
     </g>
     <g id="text_13">
      <!-- 60 -->
      <g style="fill: #273949" transform="translate(23.253379 61.500339) scale(0.11 -0.11)">
       <use xlink:href="#MicrosoftYaHei-1c"/>
       <use xlink:href="#MicrosoftYaHei-16" transform="translate(58.640625 0)"/>
      </g>
     </g>
    </g>
    <g id="text_14">
     <!-- 各维度候选内部占比（%） -->
     <g style="fill: #273949" transform="translate(16.465781 223.804668) rotate(-90) scale(0.11 -0.11)">
      <defs>
       <path id="MicrosoftYaHei-55f" d="M 1838 5366 
L 2325 5191 
Q 2191 4934 2038 4691 
L 5463 4691 
L 5463 4234 
Q 4819 3428 3806 2831 
Q 4881 2366 6375 2266 
Q 6169 1953 6025 1703 
Q 4388 1947 3272 2544 
Q 2022 1925 300 1578 
Q 169 1828 31 2059 
Q 1591 2303 2775 2844 
Q 2041 3347 1588 4038 
Q 1138 3444 569 2916 
Q 400 3122 225 3278 
Q 1288 4191 1838 5366 
z
M 1100 1666 
L 5363 1666 
L 5363 -803 
L 4875 -803 
L 4875 -441 
L 1588 -441 
L 1588 -803 
L 1100 -803 
L 1100 1666 
z
M 4875 1216 
L 1588 1216 
L 1588 -3 
L 4875 -3 
L 4875 1216 
z
M 4794 4241 
L 1988 4241 
Q 2494 3547 3275 3094 
Q 4153 3575 4794 4241 
z
" transform="scale(0.015625)"/>
       <path id="MicrosoftYaHei-9d3" d="M 1900 2791 
Q 2713 3909 3256 5334 
L 3738 5178 
Q 3488 4634 3247 4166 
L 6175 4166 
L 6175 3741 
L 4806 3741 
L 4806 2797 
L 6125 2797 
L 6125 2372 
L 4806 2372 
L 4806 1428 
L 6125 1428 
L 6125 1003 
L 4806 1003 
L 4806 34 
L 6250 34 
L 6250 -391 
L 3075 -391 
L 3075 -816 
L 2600 -816 
L 2600 2981 
Q 2400 2650 2213 2378 
Q 2094 2572 1900 2791 
z
M 794 1616 
Q 1388 1684 2100 1766 
Q 2069 1459 2050 1316 
Q 906 1184 275 1072 
L 181 1534 
Q 534 1863 1097 2872 
Q 550 2834 200 2803 
L 81 3197 
Q 681 4153 1138 5347 
L 1625 5172 
Q 1100 4053 613 3234 
Q 834 3234 1297 3244 
Q 1516 3656 1763 4159 
L 2213 3959 
Q 1338 2403 794 1616 
z
M 3075 34 
L 4331 34 
L 4331 1003 
L 3075 1003 
L 3075 34 
z
M 3075 1428 
L 4331 1428 
L 4331 2372 
L 3075 2372 
L 3075 1428 
z
M 3075 2797 
L 4331 2797 
L 4331 3741 
L 3075 3741 
L 3075 2797 
z
M 119 72 
Q 1113 247 2288 503 
Q 2269 247 2269 22 
Q 1025 -241 238 -397 
L 119 72 
z
M 4119 5078 
L 4506 5322 
Q 4869 4866 5100 4472 
L 4688 4209 
Q 4463 4609 4119 5078 
z
" transform="scale(0.015625)"/>
       <path id="MicrosoftYaHei-686" d="M 1550 1216 
L 1550 1628 
L 5469 1628 
L 5469 1222 
Q 4903 613 4147 163 
Q 5050 -200 6263 -309 
L 6019 -797 
Q 4625 -603 3644 -109 
Q 2600 -619 1250 -866 
Q 1150 -666 994 -416 
Q 2231 -222 3166 166 
Q 2497 600 2066 1216 
L 1550 1216 
z
M 1363 3541 
L 2294 3541 
L 2294 4066 
L 2769 4066 
L 2769 3541 
L 4538 3541 
L 4538 4072 
L 5013 4072 
L 5013 3541 
L 6150 3541 
L 6150 3128 
L 5013 3128 
L 5013 1928 
L 4538 1928 
L 4538 2147 
L 2769 2147 
L 2769 1922 
L 2294 1922 
L 2294 3128 
L 1363 3128 
L 1363 3541 
z
M 3025 5172 
L 3481 5391 
Q 3694 5056 3909 4634 
L 6213 4634 
L 6213 4197 
L 1225 4197 
L 1225 2316 
Q 1225 178 394 -872 
Q 238 -666 38 -447 
Q 725 397 738 2347 
L 738 4634 
L 3331 4634 
Q 3188 4909 3025 5172 
z
M 2769 2547 
L 4538 2547 
L 4538 3128 
L 2769 3128 
L 2769 2547 
z
M 4819 1216 
L 2588 1216 
Q 3031 728 3656 391 
Q 4334 741 4819 1216 
z
" transform="scale(0.015625)"/>
       <path id="MicrosoftYaHei-498" d="M 2456 1453 
L 4088 1453 
Q 4122 1781 4125 2284 
L 3322 2284 
Q 3131 1878 2919 1553 
Q 2725 1678 2500 1809 
Q 2981 2472 3219 3316 
L 3688 3216 
Q 3600 2956 3509 2722 
L 5988 2722 
L 5988 2284 
L 4606 2284 
Q 4600 1797 4572 1453 
L 6300 1453 
L 6300 1016 
L 4628 1016 
Q 5200 -122 6388 -316 
Q 6213 -578 6044 -822 
Q 4925 -500 4356 647 
Q 3972 -313 2344 -884 
Q 2206 -666 2025 -422 
Q 3678 16 4006 1016 
L 2456 1016 
L 2456 1453 
z
M 38 2334 
Q 875 3759 1169 5316 
L 1638 5228 
Q 1475 4528 1256 3903 
L 1256 -847 
L 806 -847 
L 806 2806 
Q 553 2281 250 1816 
Q 156 2059 38 2334 
z
M 2469 3803 
L 4978 3803 
L 5075 4609 
L 2831 4609 
L 2831 5034 
L 5606 5034 
L 5459 3803 
L 6250 3803 
L 6250 3366 
L 2469 3366 
L 2469 3803 
z
M 1763 4422 
L 2225 4422 
L 2225 509 
L 1763 509 
L 1763 4422 
z
" transform="scale(0.015625)"/>
       <path id="MicrosoftYaHei-b23" d="M 1756 2753 
L 3825 2753 
L 3825 3797 
L 2772 3797 
Q 2584 3322 2381 2947 
Q 2219 3053 1944 3172 
Q 2431 4028 2669 5072 
L 3156 4966 
Q 3047 4575 2928 4228 
L 3825 4228 
L 3825 5316 
L 4313 5316 
L 4313 4228 
L 5944 4228 
L 5944 3797 
L 4313 3797 
L 4313 2753 
L 6244 2753 
L 6244 2322 
L 4769 2322 
L 4769 984 
Q 4769 653 5044 653 
L 5344 653 
Q 5631 653 5675 953 
Q 5713 1197 5744 1691 
Q 5938 1603 6219 1509 
Q 6169 1078 6113 784 
Q 6013 228 5400 228 
L 4938 228 
Q 4288 228 4288 934 
L 4288 2322 
L 3447 2322 
Q 3444 2038 3431 1816 
Q 3394 647 2119 84 
Q 1994 266 1806 503 
Q 2906 959 2950 1816 
Q 2963 2003 2972 2322 
L 1756 2322 
L 1756 2753 
z
M 2694 -197 
L 4000 -209 
L 6300 -166 
Q 6231 -372 6125 -659 
L 3947 -684 
L 2638 -666 
Q 1513 -628 1081 91 
Q 825 -147 331 -747 
L 75 -228 
Q 628 306 875 538 
L 875 2641 
L 131 2641 
L 131 3103 
L 1356 3103 
L 1356 431 
Q 1741 -184 2694 -197 
z
M 856 5203 
Q 1175 4816 1731 4022 
L 1288 3709 
Q 781 4503 456 4934 
L 856 5203 
z
" transform="scale(0.015625)"/>
       <path id="MicrosoftYaHei-4c4" d="M 638 4184 
L 2944 4184 
L 2944 5259 
L 3456 5259 
L 3456 4184 
L 5750 4184 
L 5750 59 
Q 5750 -734 4969 -728 
Q 4556 -728 3956 -716 
Q 3938 -503 3863 -172 
Q 4456 -222 4850 -228 
Q 5244 -241 5244 166 
L 5244 3709 
L 3444 3709 
Q 3419 3141 3306 2697 
Q 4413 1809 5094 1134 
L 4713 728 
Q 4044 1459 3156 2247 
Q 2731 1328 1538 647 
Q 1275 1009 1188 1097 
Q 2206 1634 2581 2291 
Q 2881 2772 2931 3709 
L 1144 3709 
L 1144 -784 
L 638 -784 
L 638 4184 
z
" transform="scale(0.015625)"/>
       <path id="MicrosoftYaHei-b42" d="M 6288 1247 
Q 6288 172 5444 84 
Q 5125 47 4594 109 
Q 4563 334 4513 659 
Q 4969 584 5294 584 
Q 5844 584 5794 1341 
Q 5769 2009 4838 2709 
Q 5244 3516 5663 4503 
L 4388 4503 
L 4388 -828 
L 3913 -828 
L 3913 4966 
L 6163 4966 
L 6163 4453 
Q 5919 3822 5406 2816 
Q 6288 2128 6288 1247 
z
M 575 1753 
L 3275 1753 
L 3275 -791 
L 2813 -791 
L 2813 -328 
L 1038 -328 
L 1038 -797 
L 575 -797 
L 575 1753 
z
M 2813 1334 
L 1038 1334 
L 1038 103 
L 2813 103 
L 2813 1334 
z
M 125 2822 
L 2125 2822 
Q 2497 3466 2731 3997 
L 3194 3759 
Q 2922 3284 2616 2822 
L 3706 2822 
L 3706 2403 
L 125 2403 
L 125 2822 
z
M 263 4472 
L 1825 4472 
Q 1703 4753 1456 5159 
L 1888 5359 
Q 2169 4891 2288 4616 
L 1981 4472 
L 3594 4472 
L 3594 4053 
L 263 4053 
L 263 4472 
z
M 681 3728 
L 1063 3959 
Q 1375 3516 1631 3072 
L 1206 2828 
Q 1013 3222 681 3728 
z
" transform="scale(0.015625)"/>
       <path id="MicrosoftYaHei-529" d="M 863 2434 
L 2775 2434 
L 2775 5259 
L 3288 5259 
L 3288 4209 
L 6150 4209 
L 6150 3747 
L 3288 3747 
L 3288 2434 
L 5525 2434 
L 5525 -841 
L 5025 -841 
L 5025 -453 
L 1363 -453 
L 1363 -853 
L 863 -853 
L 863 2434 
z
M 5025 1984 
L 1363 1984 
L 1363 -9 
L 5025 -9 
L 5025 1984 
z
" transform="scale(0.015625)"/>
       <path id="MicrosoftYaHei-841" d="M 3225 5316 
L 3744 5316 
L 3744 2672 
Q 4959 3550 5744 4509 
L 6188 4178 
Q 5175 3063 3744 2056 
L 3744 247 
Q 3744 -166 4106 -166 
L 5175 -166 
Q 5588 -166 5650 203 
Q 5725 678 5763 1247 
Q 6025 1147 6300 1066 
Q 6244 484 6150 22 
Q 6019 -622 5319 -622 
L 3944 -622 
Q 3225 -622 3225 159 
L 3225 5316 
z
M 1063 5153 
L 1063 3278 
L 2825 3278 
L 2825 2809 
L 1063 2809 
L 1063 153 
Q 1713 428 2763 928 
Q 2763 634 2788 366 
Q 1869 -3 1231 -328 
Q 956 -472 725 -672 
L 344 -184 
Q 544 -34 544 272 
L 544 5153 
L 1063 5153 
z
" transform="scale(0.015625)"/>
       <path id="MicrosoftYaHei-367" d="M 5288 -1100 
Q 4172 119 4172 1850 
Q 4172 3603 5288 4838 
L 5825 4838 
Q 4716 3572 4716 1856 
Q 4716 166 5819 -1100 
L 5288 -1100 
z
" transform="scale(0.015625)"/>
       <path id="MicrosoftYaHei-b" d="M 272 3619 
Q 272 4213 589 4563 
Q 906 4913 1444 4913 
Q 1959 4913 2248 4591 
Q 2538 4269 2538 3694 
Q 2538 3122 2219 2765 
Q 1900 2409 1372 2409 
Q 872 2409 572 2740 
Q 272 3072 272 3619 
z
M 753 3650 
Q 753 3247 928 3028 
Q 1103 2809 1406 2809 
Q 1719 2809 1889 3036 
Q 2059 3263 2059 3675 
Q 2059 4078 1892 4298 
Q 1725 4519 1422 4519 
Q 1113 4519 933 4289 
Q 753 4059 753 3650 
z
M 4647 4841 
L 1538 -31 
L 1016 -31 
L 4125 4841 
L 4647 4841 
z
M 3172 1134 
Q 3172 1728 3489 2083 
Q 3806 2438 4341 2438 
Q 4853 2438 5143 2114 
Q 5434 1791 5434 1203 
Q 5434 634 5112 279 
Q 4791 -75 4272 -75 
Q 3769 -75 3470 261 
Q 3172 597 3172 1134 
z
M 3650 1163 
Q 3650 769 3825 548 
Q 4000 328 4303 328 
Q 4616 328 4786 556 
Q 4956 784 4956 1194 
Q 4956 1600 4786 1815 
Q 4616 2031 4319 2031 
Q 4000 2031 3825 1801 
Q 3650 1572 3650 1163 
z
" transform="scale(0.015625)"/>
       <path id="MicrosoftYaHei-368" d="M 1113 -1100 
L 575 -1100 
Q 1684 163 1684 1888 
Q 1684 3581 581 4838 
L 1113 4838 
Q 2222 3628 2222 1888 
Q 2222 128 1113 -1100 
z
" transform="scale(0.015625)"/>
      </defs>
      <use xlink:href="#MicrosoftYaHei-55f"/>
      <use xlink:href="#MicrosoftYaHei-9d3" transform="translate(100 0)"/>
      <use xlink:href="#MicrosoftYaHei-686" transform="translate(200 0)"/>
      <use xlink:href="#MicrosoftYaHei-498" transform="translate(300 0)"/>
      <use xlink:href="#MicrosoftYaHei-b23" transform="translate(400 0)"/>
      <use xlink:href="#MicrosoftYaHei-4c4" transform="translate(500 0)"/>
      <use xlink:href="#MicrosoftYaHei-b42" transform="translate(600 0)"/>
      <use xlink:href="#MicrosoftYaHei-529" transform="translate(700 0)"/>
      <use xlink:href="#MicrosoftYaHei-841" transform="translate(800 0)"/>
      <use xlink:href="#MicrosoftYaHei-367" transform="translate(900 0)"/>
      <use xlink:href="#MicrosoftYaHei-b" transform="translate(1000 0)"/>
      <use xlink:href="#MicrosoftYaHei-368" transform="translate(1088.96875 0)"/>
     </g>
    </g>
   </g>
   <g id="patch_15">
    <path d="M 43.154316 281.871523 
L 43.154316 34.95125 
" style="fill: none; stroke: #000000; stroke-width: 0.8; stroke-linejoin: miter; stroke-linecap: square"/>
   </g>
   <g id="patch_16">
    <path d="M 43.154316 281.871523 
L 653.006719 281.871523 
" style="fill: none; stroke: #000000; stroke-width: 0.8; stroke-linejoin: miter; stroke-linecap: square"/>
   </g>
   <g id="text_15">
    <!-- 264 -->
    <g style="fill: #273949" transform="translate(80.404904 178.641861) scale(0.09 -0.09)">
     <use xlink:href="#MicrosoftYaHei-18"/>
     <use xlink:href="#MicrosoftYaHei-1c" transform="translate(58.640625 0)"/>
     <use xlink:href="#MicrosoftYaHei-1a" transform="translate(117.28125 0)"/>
    </g>
   </g>
   <g id="text_16">
    <!-- 564 -->
    <g style="fill: #273949" transform="translate(177.329952 67.336293) scale(0.09 -0.09)">
     <use xlink:href="#MicrosoftYaHei-1b"/>
     <use xlink:href="#MicrosoftYaHei-1c" transform="translate(58.640625 0)"/>
     <use xlink:href="#MicrosoftYaHei-1a" transform="translate(117.28125 0)"/>
    </g>
   </g>
   <g id="text_17">
    <!-- 25 -->
    <g style="fill: #273949" transform="translate(276.893829 267.315298) scale(0.09 -0.09)">
     <use xlink:href="#MicrosoftYaHei-18"/>
     <use xlink:href="#MicrosoftYaHei-1b" transform="translate(58.640625 0)"/>
    </g>
   </g>
   <g id="text_18">
    <!-- 52 -->
    <g style="fill: #273949" transform="translate(373.818877 257.297796) scale(0.09 -0.09)">
     <use xlink:href="#MicrosoftYaHei-1b"/>
     <use xlink:href="#MicrosoftYaHei-18" transform="translate(58.640625 0)"/>
    </g>
   </g>
   <g id="text_19">
    <!-- 12 -->
    <g style="fill: #273949" transform="translate(470.743925 272.138539) scale(0.09 -0.09)">
     <use xlink:href="#MicrosoftYaHei-17"/>
     <use xlink:href="#MicrosoftYaHei-18" transform="translate(58.640625 0)"/>
    </g>
   </g>
   <g id="text_20">
    <!-- 93 -->
    <g style="fill: #273949" transform="translate(567.668973 242.086035) scale(0.09 -0.09)">
     <defs>
      <path id="MicrosoftYaHei-1f" d="M 578 656 
Q 978 425 1441 425 
Q 2091 425 2448 937 
Q 2806 1450 2806 2394 
Q 2800 2388 2794 2394 
Q 2475 1788 1722 1788 
Q 1113 1788 713 2206 
Q 313 2625 313 3294 
Q 313 4006 750 4464 
Q 1188 4922 1884 4922 
Q 2606 4922 3012 4355 
Q 3419 3788 3419 2703 
Q 3419 1363 2894 641 
Q 2369 -81 1441 -81 
Q 931 -81 578 84 
L 578 656 
z
M 931 3372 
Q 931 2884 1181 2598 
Q 1431 2313 1872 2313 
Q 2253 2313 2512 2573 
Q 2772 2834 2772 3206 
Q 2772 3728 2514 4070 
Q 2256 4413 1834 4413 
Q 1444 4413 1187 4116 
Q 931 3819 931 3372 
z
" transform="scale(0.015625)"/>
     </defs>
     <use xlink:href="#MicrosoftYaHei-1f"/>
     <use xlink:href="#MicrosoftYaHei-19" transform="translate(58.640625 0)"/>
    </g>
   </g>
   <g id="text_21">
    <!-- 67 -->
    <g style="fill: #273949" transform="translate(117.93675 244.236604) scale(0.09 -0.09)">
     <defs>
      <path id="MicrosoftYaHei-1d" d="M 3422 4463 
Q 2659 3131 2223 1998 
Q 1788 866 1684 0 
L 1047 0 
Q 1163 853 1594 1947 
Q 2025 3041 2747 4300 
L 347 4300 
L 347 4841 
L 3422 4841 
L 3422 4463 
z
" transform="scale(0.015625)"/>
     </defs>
     <use xlink:href="#MicrosoftYaHei-1c"/>
     <use xlink:href="#MicrosoftYaHei-1d" transform="translate(58.640625 0)"/>
    </g>
   </g>
   <g id="text_22">
    <!-- 389 -->
    <g style="fill: #273949" transform="translate(212.22297 88.74349) scale(0.09 -0.09)">
     <defs>
      <path id="MicrosoftYaHei-1e" d="M 306 1350 
Q 306 1769 556 2122 
Q 806 2475 1200 2625 
Q 884 2803 700 3081 
Q 516 3359 516 3684 
Q 516 4028 692 4312 
Q 869 4597 1183 4759 
Q 1497 4922 1875 4922 
Q 2256 4922 2572 4761 
Q 2888 4600 3063 4315 
Q 3238 4031 3238 3684 
Q 3238 3366 3058 3086 
Q 2878 2806 2559 2625 
Q 2953 2472 3200 2119 
Q 3447 1766 3447 1350 
Q 3447 938 3250 611 
Q 3053 284 2690 103 
Q 2328 -78 1875 -78 
Q 1425 -78 1065 103 
Q 706 284 506 612 
Q 306 941 306 1350 
z
M 906 1378 
Q 906 947 1172 687 
Q 1438 428 1878 428 
Q 2309 428 2582 692 
Q 2856 956 2856 1378 
Q 2856 1778 2579 2051 
Q 2303 2325 1878 2325 
Q 1456 2325 1181 2058 
Q 906 1791 906 1378 
z
M 1081 3634 
Q 1081 3309 1312 3076 
Q 1544 2844 1878 2844 
Q 2206 2844 2445 3078 
Q 2684 3313 2684 3634 
Q 2684 3963 2454 4191 
Q 2225 4419 1878 4419 
Q 1534 4419 1307 4195 
Q 1081 3972 1081 3634 
z
" transform="scale(0.015625)"/>
     </defs>
     <use xlink:href="#MicrosoftYaHei-19"/>
     <use xlink:href="#MicrosoftYaHei-1e" transform="translate(58.640625 0)"/>
     <use xlink:href="#MicrosoftYaHei-1f" transform="translate(117.28125 0)"/>
    </g>
   </g>
   <g id="text_23">
    <!-- 46 -->
    <g style="fill: #273949" transform="translate(311.786846 254.37746) scale(0.09 -0.09)">
     <use xlink:href="#MicrosoftYaHei-1a"/>
     <use xlink:href="#MicrosoftYaHei-1c" transform="translate(58.640625 0)"/>
    </g>
   </g>
   <g id="text_24">
    <!-- 181 -->
    <g style="fill: #273949" transform="translate(406.073066 189.186247) scale(0.09 -0.09)">
     <use xlink:href="#MicrosoftYaHei-17"/>
     <use xlink:href="#MicrosoftYaHei-1e" transform="translate(58.640625 0)"/>
     <use xlink:href="#MicrosoftYaHei-17" transform="translate(117.28125 0)"/>
    </g>
   </g>
   <g id="text_25">
    <!-- 37 -->
    <g style="fill: #273949" transform="translate(505.636942 258.723541) scale(0.09 -0.09)">
     <use xlink:href="#MicrosoftYaHei-19"/>
     <use xlink:href="#MicrosoftYaHei-1d" transform="translate(58.640625 0)"/>
    </g>
   </g>
   <g id="text_26">
    <!-- 56 -->
    <g style="fill: #273949" transform="translate(602.56199 249.548481) scale(0.09 -0.09)">
     <use xlink:href="#MicrosoftYaHei-1b"/>
     <use xlink:href="#MicrosoftYaHei-1c" transform="translate(58.640625 0)"/>
    </g>
   </g>
   <g id="text_27">
    <!-- 双维六级边际分布；柱顶为回合数量 -->
    <g style="fill: #273949" transform="translate(236.080518 18.95125) scale(0.14 -0.14)">
     <defs>
      <path id="MicrosoftYaHei-545" d="M 2950 4384 
L 2950 4859 
L 5894 4859 
L 5894 4403 
Q 5628 2144 4750 953 
Q 5413 184 6325 -241 
Q 6106 -503 5919 -716 
Q 5072 -181 4434 566 
Q 3728 -222 2525 -866 
Q 2413 -703 2194 -428 
Q 3406 159 4119 963 
Q 3269 2159 3119 4384 
L 2950 4384 
z
M 250 3634 
L 644 3878 
Q 1213 3041 1778 2156 
Q 2159 3163 2275 4372 
L 175 4372 
L 175 4847 
L 2775 4847 
L 2775 4372 
Q 2559 2756 2091 1659 
Q 2509 1000 2925 309 
L 2513 -9 
Q 2163 584 1831 1131 
Q 1297 153 456 -653 
Q 263 -447 69 -303 
Q 1047 616 1541 1606 
Q 850 2734 250 3634 
z
M 5369 4384 
L 3578 4384 
Q 3738 2388 4428 1366 
Q 5172 2488 5369 4384 
z
" transform="scale(0.015625)"/>
      <path id="MicrosoftYaHei-4b9" d="M 188 3703 
L 6256 3703 
L 6256 3203 
L 188 3203 
L 188 3703 
z
M 2563 5022 
L 3019 5278 
Q 3319 4853 3744 4147 
L 3231 3872 
Q 2825 4647 2563 5022 
z
M 2063 2466 
L 2600 2184 
Q 1750 659 638 -703 
Q 438 -528 169 -309 
Q 1250 853 2063 2466 
z
M 3756 2103 
L 4188 2422 
Q 5213 1141 6175 -247 
L 5650 -634 
Q 4575 1059 3756 2103 
z
" transform="scale(0.015625)"/>
      <path id="MicrosoftYaHei-9b4" d="M 3272 2522 
Q 3175 466 1994 -803 
Q 1769 -578 1594 -453 
Q 2394 391 2631 1428 
Q 2859 2322 2844 4497 
L 2288 4497 
L 2288 4941 
L 5406 4941 
L 5406 4472 
L 4800 3216 
L 5838 3216 
L 5838 2753 
Q 5475 1622 4853 775 
Q 5456 163 6331 -291 
Q 6144 -472 5913 -753 
Q 5088 -231 4522 359 
Q 3881 -366 3013 -847 
Q 2838 -616 2663 -447 
Q 3563 63 4188 756 
Q 3625 1500 3272 2522 
z
M 4281 3228 
L 4881 4497 
L 3319 4497 
Q 3322 4050 3316 3653 
Q 3794 2034 4513 1153 
Q 5044 1878 5319 2772 
L 4281 2772 
L 4281 3228 
z
M 938 1897 
Q 1588 1966 2263 2053 
Q 2238 1847 2213 1647 
Q 1194 1522 413 1391 
L 300 1834 
Q 672 2163 1234 3028 
Q 753 2994 244 2941 
L 125 3334 
Q 644 3909 1331 5334 
L 1806 5128 
Q 1163 4041 681 3366 
Q 1031 3378 1469 3397 
Q 1694 3766 1950 4209 
L 2400 3997 
Q 1456 2566 938 1897 
z
M 100 441 
Q 1100 678 2131 959 
Q 2138 741 2150 528 
Q 1094 241 275 -3 
L 100 441 
z
" transform="scale(0.015625)"/>
      <path id="MicrosoftYaHei-b06" d="M 2050 4172 
L 3291 4172 
Q 3306 4772 3306 5291 
L 3831 5291 
Q 3825 4788 3806 4172 
L 5925 4172 
Q 5850 2334 5781 1441 
Q 5694 372 4819 372 
Q 4363 372 3831 397 
Q 3794 653 3738 959 
Q 4344 897 4681 897 
Q 5219 897 5275 1503 
Q 5350 2372 5394 3697 
L 3791 3697 
Q 3744 1225 2044 259 
Q 1894 447 1681 672 
Q 3219 1528 3278 3697 
L 2050 3697 
L 2050 4172 
z
M 2909 -153 
L 4425 -172 
L 6313 -109 
Q 6206 -366 6113 -609 
L 4356 -634 
L 2897 -619 
Q 1644 -597 1156 122 
Q 775 -209 369 -697 
L 100 -166 
Q 609 275 931 550 
L 931 2678 
L 131 2678 
L 131 3134 
L 1431 3134 
L 1431 456 
Q 1894 -125 2909 -153 
z
M 794 5266 
Q 1175 4803 1656 4147 
Q 1431 4016 1206 3853 
Q 819 4453 406 4997 
L 794 5266 
z
" transform="scale(0.015625)"/>
      <path id="MicrosoftYaHei-b8e" d="M 2256 1678 
Q 2419 503 1656 334 
Q 1413 284 1025 328 
Q 975 584 888 834 
Q 1219 753 1469 784 
Q 1906 834 1763 1678 
Q 1675 2166 1169 2828 
Q 1425 3591 1681 4491 
L 850 4491 
L 850 -841 
L 375 -841 
L 375 4953 
L 2200 4953 
L 2200 4503 
Q 1913 3572 1694 2884 
Q 2194 2203 2256 1678 
z
M 2150 3228 
L 6225 3228 
L 6225 2766 
L 4425 2766 
L 4425 16 
Q 4425 -747 3688 -747 
Q 3394 -747 2938 -741 
Q 2881 -403 2838 -209 
Q 3313 -259 3575 -259 
Q 3938 -259 3938 122 
L 3938 2766 
L 2150 2766 
L 2150 3228 
z
M 2488 4803 
L 5888 4803 
L 5888 4341 
L 2488 4341 
L 2488 4803 
z
M 2969 2097 
L 3431 1928 
Q 2988 747 2481 -222 
Q 2206 -72 2038 -3 
Q 2594 1003 2969 2097 
z
M 4900 1872 
L 5331 2084 
Q 5844 1041 6300 53 
L 5844 -166 
Q 5494 641 4900 1872 
z
" transform="scale(0.015625)"/>
      <path id="MicrosoftYaHei-4e3" d="M 900 2559 
L 5056 2559 
Q 5025 1497 4963 484 
Q 4888 -684 3856 -678 
Q 3350 -684 2788 -647 
Q 2750 -384 2700 -116 
Q 3181 -184 3775 -191 
Q 4400 -203 4463 541 
Q 4513 1216 4538 2097 
L 2616 2097 
Q 2541 1053 2181 416 
Q 1706 -422 588 -878 
Q 425 -666 231 -459 
Q 1269 -72 1725 666 
Q 2053 1225 2103 2097 
L 900 2097 
L 900 2559 
z
M 3488 5159 
L 3938 5353 
Q 4625 3678 6350 2847 
Q 6069 2553 5944 2372 
Q 4225 3366 3488 5159 
z
M 50 2766 
Q 1338 3678 2250 5253 
L 2694 5009 
Q 1744 3347 413 2341 
Q 281 2534 50 2766 
z
" transform="scale(0.015625)"/>
      <path id="MicrosoftYaHei-662" d="M 3250 3666 
L 3750 3666 
L 3750 2703 
L 5681 2703 
L 5681 541 
Q 5681 -197 5050 -197 
Q 4888 -197 4119 -191 
Q 4081 16 4019 316 
Q 4644 278 4769 278 
Q 5188 266 5188 666 
L 5188 2253 
L 3750 2253 
L 3750 -828 
L 3250 -828 
L 3250 2253 
L 1844 2253 
L 1844 -353 
L 1350 -353 
L 1350 2113 
Q 928 1553 450 1028 
Q 294 1253 94 1447 
Q 1241 2647 1969 3984 
L 200 3984 
L 200 4434 
L 2200 4434 
Q 2419 4884 2594 5353 
L 3088 5153 
Q 2934 4788 2766 4434 
L 6250 4434 
L 6250 3984 
L 2538 3984 
Q 2188 3325 1772 2703 
L 3250 2703 
L 3250 3666 
z
" transform="scale(0.015625)"/>
      <path id="MicrosoftYaHei-37a" d="M 1606 3531 
Q 1772 3531 1890 3415 
Q 2009 3300 2009 3138 
Q 2009 2975 1893 2858 
Q 1778 2741 1606 2741 
Q 1434 2741 1318 2858 
Q 1203 2975 1203 3138 
Q 1203 3300 1322 3415 
Q 1441 3531 1606 3531 
z
M 1931 775 
L 1403 -891 
L 966 -891 
L 1350 775 
L 1931 775 
z
" transform="scale(0.015625)"/>
      <path id="MicrosoftYaHei-7f4" d="M 2188 -16 
L 3988 -16 
L 3988 1809 
L 2588 1809 
L 2588 2259 
L 3988 2259 
L 3988 3747 
L 2400 3747 
L 2400 4197 
L 6119 4197 
L 6119 3747 
L 4500 3747 
L 4500 2259 
L 5919 2259 
L 5919 1809 
L 4500 1809 
L 4500 -16 
L 6319 -16 
L 6319 -466 
L 2188 -466 
L 2188 -16 
z
M 63 1403 
Q 641 2338 947 3584 
L 156 3584 
L 156 4016 
L 981 4016 
L 981 5291 
L 1463 5291 
L 1463 4016 
L 2213 4016 
L 2213 3584 
L 1463 3584 
L 1463 2503 
L 1669 2697 
Q 2019 2366 2375 1978 
L 2025 1666 
Q 1750 2009 1463 2316 
L 1463 -816 
L 981 -816 
L 981 2450 
Q 678 1478 263 853 
Q 175 1122 63 1403 
z
M 3631 5116 
L 4044 5372 
Q 4381 4972 4644 4572 
L 4206 4284 
Q 3981 4672 3631 5116 
z
" transform="scale(0.015625)"/>
      <path id="MicrosoftYaHei-bbd" d="M 2606 3647 
L 3775 3647 
L 3950 4491 
L 2538 4491 
L 2538 4941 
L 6263 4941 
L 6263 4491 
L 4456 4491 
L 4256 3647 
L 5981 3647 
L 5981 653 
L 5500 653 
L 5500 3197 
L 3088 3197 
L 3088 628 
L 2606 628 
L 2606 3647 
z
M 94 4791 
L 2419 4791 
L 2419 4334 
L 1588 4334 
L 1588 141 
Q 1588 -603 819 -603 
Q 500 -603 306 -591 
Q 275 -303 206 -34 
Q 494 -103 800 -103 
Q 1100 -103 1100 184 
L 1100 4334 
L 94 4334 
L 94 4791 
z
M 4044 2891 
L 4525 2891 
L 4525 2203 
Q 4525 1422 4356 872 
Q 5413 197 6281 -453 
L 5931 -872 
Q 5094 -178 4175 441 
Q 4113 316 4038 216 
Q 3519 -497 2244 -897 
Q 2125 -691 1944 -447 
Q 3125 -109 3613 491 
Q 4044 1053 4044 2191 
L 4044 2891 
z
" transform="scale(0.015625)"/>
      <path id="MicrosoftYaHei-41e" d="M 356 3684 
L 2703 3684 
Q 2794 4450 2794 5341 
L 3331 5341 
Q 3331 4413 3244 3684 
L 5900 3684 
Q 5863 1753 5788 497 
Q 5725 -672 4550 -672 
Q 4063 -672 3394 -641 
Q 3369 -397 3300 -59 
Q 3888 -141 4456 -141 
Q 5206 -141 5244 597 
Q 5331 1822 5356 3197 
L 3175 3197 
Q 2716 441 606 -903 
Q 431 -684 225 -441 
Q 2169 706 2628 3197 
L 356 3197 
L 356 3684 
z
M 3325 2072 
L 3669 2378 
Q 4269 1822 4756 1284 
L 4369 934 
Q 3888 1503 3325 2072 
z
M 800 4922 
L 1138 5234 
Q 1656 4784 2138 4309 
L 1756 3953 
Q 1294 4459 800 4922 
z
" transform="scale(0.015625)"/>
      <path id="MicrosoftYaHei-59b" d="M 475 4947 
L 5938 4947 
L 5938 -778 
L 5413 -778 
L 5413 -378 
L 1000 -378 
L 1000 -778 
L 475 -778 
L 475 4947 
z
M 5413 4484 
L 1000 4484 
L 1000 72 
L 5413 72 
L 5413 4484 
z
M 1875 3528 
L 4531 3528 
L 4531 797 
L 4044 797 
L 4044 1147 
L 2363 1147 
L 2363 797 
L 1875 797 
L 1875 3528 
z
M 4044 3091 
L 2363 3091 
L 2363 1584 
L 4044 1584 
L 4044 3091 
z
" transform="scale(0.015625)"/>
      <path id="MicrosoftYaHei-560" d="M 1025 1909 
L 5381 1909 
L 5381 -866 
L 4881 -866 
L 4881 -447 
L 1525 -447 
L 1525 -878 
L 1025 -878 
L 1025 1909 
z
M 3700 5234 
L 3550 5053 
Q 4594 3697 6319 3009 
Q 6125 2734 5988 2509 
Q 5481 2753 5025 3059 
L 5025 2703 
L 1369 2703 
L 1369 3016 
Q 913 2716 394 2428 
Q 269 2641 81 2897 
Q 2013 3866 3000 5234 
L 3700 5234 
z
M 4881 1453 
L 1525 1453 
L 1525 -3 
L 4881 -3 
L 4881 1453 
z
M 3219 4691 
Q 2581 3872 1550 3147 
L 4894 3147 
Q 3944 3797 3219 4691 
z
" transform="scale(0.015625)"/>
      <path id="MicrosoftYaHei-783" d="M 4175 5303 
L 4675 5228 
Q 4544 4622 4369 4097 
L 6281 4097 
L 6281 3672 
L 5888 3672 
Q 5731 1834 5088 753 
Q 5594 66 6375 -372 
Q 6175 -647 6038 -866 
Q 5275 -372 4769 309 
Q 4194 -403 3400 -928 
Q 3263 -747 3044 -534 
Q 3919 41 4463 772 
Q 3956 1647 3794 2791 
Q 3663 2559 3519 2359 
Q 3394 2541 3206 2759 
Q 3931 3803 4175 5303 
z
M 150 1697 
L 1100 1697 
Q 1238 1934 1369 2184 
L 1819 2041 
Q 1719 1866 1619 1697 
L 3150 1697 
L 3150 1291 
Q 2913 678 2431 216 
Q 2775 53 3131 -109 
L 2856 -541 
Q 2469 -322 2050 -103 
Q 1344 -609 269 -903 
Q 169 -703 56 -466 
Q 969 -259 1600 128 
Q 1063 403 475 691 
Q 675 978 863 1284 
L 150 1284 
L 150 1697 
z
M 219 3847 
L 1656 3847 
L 1656 5247 
L 2119 5247 
L 2119 3847 
L 3319 3847 
L 3319 3434 
L 2119 3434 
L 2119 3053 
L 2306 3266 
Q 2888 2841 3281 2516 
L 2981 2166 
Q 2638 2491 2119 2897 
L 2119 2184 
L 1656 2184 
L 1656 3059 
Q 1088 2466 331 2016 
Q 213 2197 63 2397 
Q 850 2822 1506 3434 
L 219 3434 
L 219 3847 
z
M 5388 3672 
L 4219 3672 
Q 4188 3591 4150 3516 
Q 4263 2191 4775 1247 
Q 5275 2159 5388 3672 
z
M 1088 834 
Q 1531 634 2000 416 
Q 2431 784 2675 1284 
L 1375 1284 
Q 1231 1053 1088 834 
z
M 3038 5091 
L 3425 4834 
Q 3081 4384 2738 4003 
Q 2594 4128 2400 4266 
Q 2725 4647 3038 5091 
z
M 381 4816 
L 738 5059 
Q 1019 4716 1319 4322 
L 931 4047 
Q 656 4453 381 4816 
z
" transform="scale(0.015625)"/>
      <path id="MicrosoftYaHei-b4f" d="M 113 -278 
L 2981 -278 
L 2981 78 
L 475 78 
L 475 403 
L 2981 403 
L 2981 759 
L 1494 759 
L 1494 597 
L 1069 597 
L 1069 2516 
L 5350 2516 
L 5350 597 
L 4925 597 
L 4925 759 
L 3419 759 
L 3419 403 
L 5931 403 
L 5931 78 
L 3419 78 
L 3419 -278 
L 6288 -278 
L 6288 -616 
L 113 -616 
L 113 -278 
z
M 1119 5072 
L 5306 5072 
L 5306 3284 
L 4881 3284 
L 4881 3453 
L 1544 3453 
L 1544 3284 
L 1119 3284 
L 1119 5072 
z
M 163 3153 
L 6263 3153 
L 6263 2816 
L 163 2816 
L 163 3153 
z
M 1544 3778 
L 4881 3778 
L 4881 4116 
L 1544 4116 
L 1544 3778 
z
M 4881 4747 
L 1544 4747 
L 1544 4416 
L 4881 4416 
L 4881 4747 
z
M 3419 1084 
L 4925 1084 
L 4925 1491 
L 3419 1491 
L 3419 1084 
z
M 1494 1084 
L 2981 1084 
L 2981 1491 
L 1494 1491 
L 1494 1084 
z
M 4925 2191 
L 3419 2191 
L 3419 1791 
L 4925 1791 
L 4925 2191 
z
M 1494 1791 
L 2981 1791 
L 2981 2191 
L 1494 2191 
L 1494 1791 
z
" transform="scale(0.015625)"/>
     </defs>
     <use xlink:href="#MicrosoftYaHei-545"/>
     <use xlink:href="#MicrosoftYaHei-9d3" transform="translate(100 0)"/>
     <use xlink:href="#MicrosoftYaHei-4b9" transform="translate(200 0)"/>
     <use xlink:href="#MicrosoftYaHei-9b4" transform="translate(300 0)"/>
     <use xlink:href="#MicrosoftYaHei-b06" transform="translate(400 0)"/>
     <use xlink:href="#MicrosoftYaHei-b8e" transform="translate(500 0)"/>
     <use xlink:href="#MicrosoftYaHei-4e3" transform="translate(600 0)"/>
     <use xlink:href="#MicrosoftYaHei-662" transform="translate(700 0)"/>
     <use xlink:href="#MicrosoftYaHei-37a" transform="translate(800 0)"/>
     <use xlink:href="#MicrosoftYaHei-7f4" transform="translate(900 0)"/>
     <use xlink:href="#MicrosoftYaHei-bbd" transform="translate(1000 0)"/>
     <use xlink:href="#MicrosoftYaHei-41e" transform="translate(1100 0)"/>
     <use xlink:href="#MicrosoftYaHei-59b" transform="translate(1200 0)"/>
     <use xlink:href="#MicrosoftYaHei-560" transform="translate(1300 0)"/>
     <use xlink:href="#MicrosoftYaHei-783" transform="translate(1400 0)"/>
     <use xlink:href="#MicrosoftYaHei-b4f" transform="translate(1500 0)"/>
    </g>
   </g>
   <g id="legend_1">
    <g id="patch_17">
     <path d="M 524.311875 54.117031 
L 546.311875 54.117031 
L 546.311875 46.417031 
L 524.311875 46.417031 
z
" style="fill: #176b77"/>
    </g>
    <g id="text_28">
     <!-- 任务候选 n=1010 -->
     <g style="fill: #273949" transform="translate(555.111875 54.117031) scale(0.11 -0.11)">
      <defs>
       <path id="MicrosoftYaHei-460" d="M 2138 -3 
L 3963 -3 
L 3963 1972 
L 2025 1972 
L 2025 2447 
L 3963 2447 
L 3963 4306 
Q 3188 4253 2338 4209 
Q 2306 4428 2250 4691 
Q 4356 4803 5969 4978 
L 6063 4484 
Q 5325 4409 4488 4347 
L 4488 2447 
L 6319 2447 
L 6319 1972 
L 4488 1972 
L 4488 -3 
L 6225 -3 
L 6225 -466 
L 2138 -466 
L 2138 -3 
z
M 75 2309 
Q 1044 3616 1606 5291 
L 2100 5109 
Q 1819 4375 1513 3741 
L 1513 -841 
L 1019 -841 
L 1019 2822 
Q 666 2225 281 1753 
Q 194 2003 75 2309 
z
" transform="scale(0.015625)"/>
       <path id="MicrosoftYaHei-507" d="M 1900 5391 
L 2369 5191 
Q 2228 4959 2075 4741 
L 5456 4741 
L 5456 4322 
Q 4875 3616 3866 3088 
Q 4916 2706 6369 2616 
Q 6169 2334 6019 2091 
Q 4391 2306 3288 2819 
Q 2047 2291 288 1984 
Q 181 2178 31 2422 
Q 1597 2663 2750 3103 
Q 2038 3538 1609 4131 
Q 1125 3556 538 3066 
Q 350 3266 194 3403 
Q 1344 4316 1900 5391 
z
M 588 1728 
L 2406 1728 
Q 2450 2031 2481 2403 
L 2988 2403 
Q 2947 2031 2903 1728 
L 5425 1728 
Q 5363 609 5306 159 
Q 5206 -722 4256 -728 
Q 3888 -734 3150 -703 
Q 3113 -472 3056 -184 
Q 3775 -247 4244 -253 
Q 4775 -241 4831 284 
Q 4888 753 4913 1284 
L 2828 1284 
Q 2497 -219 500 -897 
Q 356 -691 194 -478 
Q 1988 103 2319 1284 
L 588 1284 
L 588 1728 
z
M 4788 4328 
L 1997 4328 
Q 2500 3725 3291 3334 
Q 4194 3756 4788 4328 
z
" transform="scale(0.015625)"/>
       <path id="MicrosoftYaHei-3" transform="scale(0.015625)"/>
       <path id="MicrosoftYaHei-54" d="M 3469 0 
L 2859 0 
L 2859 1966 
Q 2859 3031 2081 3031 
Q 1678 3031 1418 2731 
Q 1159 2431 1159 1972 
L 1159 0 
L 547 0 
L 547 3456 
L 1159 3456 
L 1159 2884 
L 1172 2884 
Q 1563 3538 2306 3538 
Q 2875 3538 3172 3173 
Q 3469 2809 3469 2113 
L 3469 0 
z
" transform="scale(0.015625)"/>
       <path id="MicrosoftYaHei-23" d="M 3972 2497 
L 788 2497 
L 788 2969 
L 3972 2969 
L 3972 2497 
z
M 3972 1053 
L 788 1053 
L 788 1525 
L 3972 1525 
L 3972 1053 
z
" transform="scale(0.015625)"/>
      </defs>
      <use xlink:href="#MicrosoftYaHei-460"/>
      <use xlink:href="#MicrosoftYaHei-507" transform="translate(100 0)"/>
      <use xlink:href="#MicrosoftYaHei-498" transform="translate(200 0)"/>
      <use xlink:href="#MicrosoftYaHei-b23" transform="translate(300 0)"/>
      <use xlink:href="#MicrosoftYaHei-3" transform="translate(400 0)"/>
      <use xlink:href="#MicrosoftYaHei-54" transform="translate(429.59375 0)"/>
      <use xlink:href="#MicrosoftYaHei-23" transform="translate(491.21875 0)"/>
      <use xlink:href="#MicrosoftYaHei-17" transform="translate(565.390625 0)"/>
      <use xlink:href="#MicrosoftYaHei-16" transform="translate(624.03125 0)"/>
      <use xlink:href="#MicrosoftYaHei-17" transform="translate(682.671875 0)"/>
      <use xlink:href="#MicrosoftYaHei-16" transform="translate(741.3125 0)"/>
     </g>
    </g>
    <g id="patch_18">
     <path d="M 524.311875 71.541504 
L 546.311875 71.541504 
L 546.311875 63.841504 
L 524.311875 63.841504 
z
" style="fill: #bc632f"/>
    </g>
    <g id="text_29">
     <!-- 贡献候选 n=776 -->
     <g style="fill: #273949" transform="translate(555.111875 71.541504) scale(0.11 -0.11)">
      <defs>
       <path id="MicrosoftYaHei-5e16" d="M 194 3728 
L 2981 3728 
L 2981 4541 
L 813 4541 
L 813 4978 
L 5588 4978 
L 5588 4541 
L 3469 4541 
L 3469 3728 
L 6206 3728 
L 6206 3291 
L 194 3291 
L 194 3728 
z
M 875 2753 
L 5525 2753 
L 5525 566 
L 5025 566 
L 5025 2316 
L 1375 2316 
L 1375 491 
L 875 491 
L 875 2753 
z
M 2944 2059 
L 3450 2059 
Q 3456 1259 3313 778 
Q 4725 272 6200 -391 
L 5919 -866 
Q 4450 -159 3119 347 
Q 2525 -553 450 -884 
Q 338 -622 175 -409 
Q 2244 -109 2700 659 
Q 2944 991 2944 2059 
z
" transform="scale(0.015625)"/>
       <path id="MicrosoftYaHei-8e3" d="M 838 -803 
L 400 -803 
L 400 3391 
L 1738 3391 
L 1738 4066 
L 250 4066 
L 250 4478 
L 1738 4478 
L 1738 5309 
L 2188 5309 
L 2188 4478 
L 3663 4478 
L 3663 4066 
L 2188 4066 
L 2188 3391 
L 3519 3391 
L 3519 -109 
Q 3519 -791 2894 -791 
Q 2619 -791 2381 -784 
Q 2350 -591 2300 -347 
Q 2606 -372 2838 -372 
Q 3081 -372 3081 -59 
L 3081 2991 
L 838 2991 
L 838 -803 
z
M 3675 3666 
L 4625 3666 
Q 4631 4300 4631 5309 
L 5081 5309 
Q 5081 4491 5072 3666 
L 6288 3666 
L 6288 3241 
L 5066 3241 
L 5066 3203 
Q 5413 628 6269 -466 
Q 6081 -641 5906 -847 
Q 5253 53 4925 1784 
Q 4678 138 3856 -859 
Q 3688 -684 3494 -534 
Q 4581 703 4619 3241 
L 3675 3241 
L 3675 3666 
z
M 1725 -547 
L 1725 697 
L 1013 697 
L 1013 1084 
L 1725 1084 
L 1725 1616 
L 1075 1616 
L 1075 2003 
L 2838 2003 
L 2838 1616 
L 2150 1616 
L 2150 1084 
L 2900 1084 
L 2900 697 
L 2150 697 
L 2150 -547 
L 1725 -547 
z
M 5288 4809 
L 5625 5022 
Q 5963 4609 6225 4216 
L 5856 3966 
Q 5575 4434 5288 4809 
z
M 2031 2228 
Q 2269 2584 2419 2941 
L 2775 2784 
Q 2594 2428 2363 2053 
L 2031 2228 
z
M 1100 2759 
L 1413 2941 
Q 1625 2622 1838 2253 
L 1500 2066 
Q 1306 2453 1100 2759 
z
" transform="scale(0.015625)"/>
      </defs>
      <use xlink:href="#MicrosoftYaHei-5e16"/>
      <use xlink:href="#MicrosoftYaHei-8e3" transform="translate(100 0)"/>
      <use xlink:href="#MicrosoftYaHei-498" transform="translate(200 0)"/>
      <use xlink:href="#MicrosoftYaHei-b23" transform="translate(300 0)"/>
      <use xlink:href="#MicrosoftYaHei-3" transform="translate(400 0)"/>
      <use xlink:href="#MicrosoftYaHei-54" transform="translate(429.59375 0)"/>
      <use xlink:href="#MicrosoftYaHei-23" transform="translate(491.21875 0)"/>
      <use xlink:href="#MicrosoftYaHei-1d" transform="translate(565.390625 0)"/>
      <use xlink:href="#MicrosoftYaHei-1d" transform="translate(624.03125 0)"/>
      <use xlink:href="#MicrosoftYaHei-1c" transform="translate(682.671875 0)"/>
     </g>
    </g>
   </g>
  </g>
 </g>
 <defs>
  <clipPath id="p75f35a11c7">
   <rect x="43.154316" y="34.95125" width="609.852402" height="246.920273"/>
  </clipPath>
 </defs>
</svg>
